<svg xmlns="http://www.w3.org/2000/svg" xmlns:xlink="http://www.w3.org/1999/xlink" width="1080" zoomAndPan="magnify" viewBox="0 0 810 809.999993" height="1080" preserveAspectRatio="xMidYMid meet" version="1.0"><defs><clipPath id="3c7d36e3a0"><path d="M 196.042969 196.042969 L 613.792969 196.042969 L 613.792969 613.792969 L 196.042969 613.792969 Z M 196.042969 196.042969 " clip-rule="nonzero"/></clipPath></defs><rect x="-81" width="972" fill="#ffffff" y="-80.999999" height="971.999992" fill-opacity="1"/><rect x="-81" width="972" fill="#673ab7" y="-80.999999" height="971.999992" fill-opacity="1"/><g clip-path="url(#3c7d36e3a0)"><path fill="#602e9e" d="M 613.792969 555.773438 C 613.792969 587.824219 587.824219 613.792969 555.773438 613.792969 L 254.0625 613.792969 C 222.023438 613.792969 196.042969 587.824219 196.042969 555.773438 L 196.042969 254.066406 C 196.042969 222.015625 222.023438 196.042969 254.0625 196.042969 L 555.773438 196.042969 C 587.824219 196.042969 613.792969 222.015625 613.792969 254.066406 Z M 613.792969 555.773438 " fill-opacity="1" fill-rule="nonzero"/></g><path fill="#ffffff" d="M 509.703125 423.484375 C 502.160156 413.042969 491.253906 405.847656 477.210938 402.019531 C 477.210938 402.019531 489.046875 397.722656 499.722656 381.710938 C 506.105469 371.5 509.355469 359.199219 509.355469 344.808594 C 509.355469 319.859375 500.304688 300.714844 482.203125 287.601562 C 464.101562 274.488281 443.675781 265.667969 408.980469 265.667969 L 300.480469 265.667969 L 300.480469 544.167969 L 421.511719 544.167969 C 454.351562 543.9375 479.070312 536.859375 495.894531 523.28125 C 512.605469 509.472656 520.960938 489.050781 520.960938 461.777344 C 520.960938 446.695312 517.246094 433.929688 509.703125 423.484375 Z M 370.105469 312.085938 C 370.105469 312.085938 418.496094 312.085938 419.421875 312.085938 C 437.0625 312.085938 451.335938 326.359375 451.335938 343.996094 C 451.335938 361.636719 437.0625 375.910156 419.421875 375.910156 C 418.496094 375.910156 370.105469 375.910156 370.105469 375.910156 Z M 428.125 497.753906 L 370.105469 497.753906 L 370.105469 428.128906 L 428.125 428.128906 C 447.390625 428.128906 462.9375 443.675781 462.9375 462.941406 C 462.9375 482.203125 447.390625 497.753906 428.125 497.753906 Z M 428.125 497.753906 " fill-opacity="1" fill-rule="nonzero"/></svg>