<svg xmlns="http://www.w3.org/2000/svg" xmlns:xlink="http://www.w3.org/1999/xlink" width="1080" zoomAndPan="magnify" viewBox="0 0 810 809.999993" height="1080" preserveAspectRatio="xMidYMid meet" version="1.0"><defs><clipPath id="612c0ef090"><path d="M 187.910156 162.441406 L 622.160156 162.441406 L 622.160156 647.691406 L 187.910156 647.691406 Z M 187.910156 162.441406 " clip-rule="nonzero"/></clipPath></defs><rect x="-81" width="972" fill="#ffffff" y="-80.999999" height="971.999992" fill-opacity="1"/><rect x="-81" width="972" fill="#039be5" y="-80.999999" height="971.999992" fill-opacity="1"/><g clip-path="url(#612c0ef090)"><path fill="#0277bd" d="M 622.097656 162.441406 L 187.972656 162.441406 L 226.277344 596.613281 L 405.035156 647.691406 L 583.792969 596.613281 Z M 622.097656 162.441406 " fill-opacity="1" fill-rule="nonzero"/></g><path fill="#039be5" d="M 405.035156 200.75 L 405.035156 608.105469 L 548.042969 567.242188 L 579.964844 200.75 Z M 405.035156 200.75 " fill-opacity="1" fill-rule="nonzero"/><path fill="#ffffff" d="M 521.226562 264.601562 L 405.035156 264.601562 L 405.035156 315.679688 L 467.601562 315.679688 L 463.769531 366.757812 L 405.035156 366.757812 L 405.035156 417.835938 L 461.214844 417.835938 L 457.386719 475.300781 L 405.035156 493.179688 L 405.035156 546.8125 L 505.90625 513.609375 L 514.84375 366.757812 Z M 521.226562 264.601562 " fill-opacity="1" fill-rule="nonzero"/><path fill="#eeeeee" d="M 405.035156 264.601562 L 405.035156 315.679688 L 291.394531 315.679688 L 287.566406 264.601562 Z M 346.300781 366.757812 L 348.855469 417.835938 L 405.035156 417.835938 L 405.035156 366.757812 Z M 351.40625 443.375 L 300.335938 443.375 L 304.164062 513.609375 L 405.035156 546.8125 L 405.035156 493.179688 L 352.683594 475.300781 Z M 351.40625 443.375 " fill-opacity="1" fill-rule="nonzero"/></svg>