<svg xmlns="http://www.w3.org/2000/svg" xmlns:xlink="http://www.w3.org/1999/xlink" width="1080" zoomAndPan="magnify" viewBox="0 0 810 809.999993" height="1080" preserveAspectRatio="xMidYMid meet" version="1.0"><defs><clipPath id="94b1fda134"><path d="M 156.140625 156.140625 L 654.140625 156.140625 L 654.140625 654 L 156.140625 654 Z M 156.140625 156.140625 " clip-rule="nonzero"/></clipPath></defs><rect x="-81" width="972" fill="#ffffff" y="-80.999999" height="971.999992" fill-opacity="1"/><rect x="-81" width="972" fill="#f03c2e" y="-80.999999" height="971.999992" fill-opacity="1"/><g clip-path="url(#94b1fda134)"><path fill="#fffaf9" d="M 644.738281 382.964844 L 427.316406 165.539062 C 426.574219 164.796875 425.796875 164.09375 424.984375 163.425781 C 424.171875 162.757812 423.332031 162.132812 422.457031 161.550781 C 421.585938 160.964844 420.683594 160.425781 419.757812 159.933594 C 418.832031 159.4375 417.882812 158.988281 416.914062 158.585938 C 415.945312 158.183594 414.957031 157.832031 413.949219 157.527344 C 412.945312 157.21875 411.929688 156.964844 410.898438 156.761719 C 409.867188 156.554688 408.832031 156.402344 407.785156 156.296875 C 406.738281 156.195312 405.691406 156.144531 404.640625 156.144531 C 403.589844 156.144531 402.542969 156.195312 401.5 156.296875 C 400.453125 156.402344 399.414062 156.554688 398.386719 156.761719 C 397.355469 156.964844 396.335938 157.21875 395.332031 157.527344 C 394.328125 157.832031 393.339844 158.183594 392.371094 158.585938 C 391.398438 158.988281 390.453125 159.4375 389.523438 159.933594 C 388.597656 160.425781 387.699219 160.964844 386.824219 161.550781 C 385.953125 162.132812 385.109375 162.757812 384.296875 163.425781 C 383.488281 164.09375 382.710938 164.796875 381.96875 165.539062 L 336.835938 210.671875 L 394.105469 267.941406 C 407.425781 263.273438 422.679688 266.460938 433.292969 277.074219 C 434.550781 278.335938 435.710938 279.675781 436.78125 281.097656 C 437.851562 282.519531 438.816406 284.007812 439.675781 285.566406 C 440.539062 287.125 441.285156 288.734375 441.921875 290.394531 C 442.554688 292.054688 443.074219 293.753906 443.46875 295.488281 C 443.867188 297.222656 444.144531 298.976562 444.296875 300.75 C 444.449219 302.519531 444.476562 304.296875 444.378906 306.070312 C 444.285156 307.847656 444.0625 309.609375 443.722656 311.355469 C 443.378906 313.101562 442.917969 314.816406 442.335938 316.496094 L 497.535156 371.695312 C 510.886719 367.089844 526.292969 370.0625 536.953125 380.753906 C 537.839844 381.636719 538.675781 382.5625 539.472656 383.527344 C 540.265625 384.496094 541.007812 385.496094 541.703125 386.539062 C 542.398438 387.578125 543.042969 388.648438 543.632812 389.75 C 544.222656 390.851562 544.753906 391.980469 545.234375 393.136719 C 545.710938 394.292969 546.132812 395.46875 546.496094 396.664062 C 546.859375 397.863281 547.164062 399.074219 547.40625 400.300781 C 547.652344 401.527344 547.835938 402.761719 547.957031 404.003906 C 548.082031 405.25 548.144531 406.496094 548.144531 407.746094 C 548.144531 409 548.082031 410.246094 547.960938 411.492188 C 547.835938 412.734375 547.652344 413.96875 547.410156 415.195312 C 547.164062 416.421875 546.863281 417.632812 546.5 418.832031 C 546.136719 420.027344 545.714844 421.203125 545.238281 422.359375 C 544.757812 423.515625 544.222656 424.644531 543.636719 425.746094 C 543.046875 426.847656 542.402344 427.921875 541.707031 428.960938 C 541.011719 430 540.269531 431.003906 539.476562 431.96875 C 538.683594 432.9375 537.84375 433.859375 536.960938 434.746094 C 536.074219 435.628906 535.148438 436.46875 534.183594 437.261719 C 533.214844 438.054688 532.210938 438.796875 531.171875 439.492188 C 530.132812 440.1875 529.0625 440.828125 527.957031 441.417969 C 526.855469 442.007812 525.726562 442.539062 524.570312 443.019531 C 523.414062 443.496094 522.238281 443.917969 521.042969 444.28125 C 519.847656 444.644531 518.632812 444.945312 517.410156 445.191406 C 516.183594 445.433594 514.945312 445.617188 513.703125 445.738281 C 512.457031 445.859375 511.210938 445.921875 509.960938 445.921875 C 508.707031 445.921875 507.460938 445.859375 506.21875 445.734375 C 504.972656 445.613281 503.738281 445.429688 502.511719 445.183594 C 501.285156 444.9375 500.074219 444.636719 498.875 444.273438 C 497.679688 443.90625 496.503906 443.488281 495.351562 443.007812 C 494.195312 442.527344 493.066406 441.992188 491.964844 441.402344 C 490.859375 440.8125 489.789062 440.171875 488.75 439.476562 C 487.710938 438.78125 486.707031 438.035156 485.742188 437.242188 C 484.777344 436.449219 483.851562 435.609375 482.96875 434.722656 C 471.761719 423.519531 468.992188 407.023438 474.65625 393.21875 L 423.175781 341.738281 L 423.175781 477.210938 C 426.9375 479.070312 430.308594 481.476562 433.292969 484.429688 C 434.175781 485.316406 435.015625 486.238281 435.808594 487.207031 C 436.601562 488.171875 437.34375 489.175781 438.039062 490.214844 C 438.734375 491.253906 439.375 492.324219 439.964844 493.425781 C 440.554688 494.527344 441.085938 495.65625 441.566406 496.8125 C 442.042969 497.964844 442.464844 499.140625 442.828125 500.335938 C 443.191406 501.535156 443.492188 502.746094 443.738281 503.972656 C 443.980469 505.195312 444.164062 506.429688 444.285156 507.675781 C 444.410156 508.917969 444.46875 510.167969 444.46875 511.414062 C 444.46875 512.664062 444.410156 513.914062 444.285156 515.15625 C 444.164062 516.402344 443.980469 517.636719 443.738281 518.859375 C 443.492188 520.085938 443.191406 521.296875 442.828125 522.496094 C 442.464844 523.691406 442.042969 524.867188 441.566406 526.019531 C 441.085938 527.175781 440.554688 528.304688 439.964844 529.40625 C 439.375 530.507812 438.734375 531.578125 438.039062 532.617188 C 437.34375 533.65625 436.601562 534.660156 435.808594 535.625 C 435.015625 536.59375 434.175781 537.519531 433.292969 538.402344 C 432.410156 539.285156 431.484375 540.125 430.515625 540.917969 C 429.550781 541.710938 428.546875 542.453125 427.507812 543.148438 C 426.46875 543.84375 425.398438 544.484375 424.296875 545.074219 C 423.195312 545.660156 422.066406 546.195312 420.910156 546.675781 C 419.757812 547.152344 418.582031 547.574219 417.386719 547.9375 C 416.1875 548.296875 414.976562 548.601562 413.753906 548.847656 C 412.527344 549.089844 411.292969 549.273438 410.046875 549.394531 C 408.804688 549.519531 407.558594 549.578125 406.308594 549.578125 C 405.058594 549.578125 403.808594 549.519531 402.566406 549.394531 C 401.324219 549.273438 400.085938 549.089844 398.863281 548.847656 C 397.636719 548.601562 396.425781 548.296875 395.230469 547.9375 C 394.03125 547.574219 392.855469 547.152344 391.703125 546.675781 C 390.546875 546.195312 389.417969 545.660156 388.316406 545.074219 C 387.214844 544.484375 386.144531 543.84375 385.105469 543.148438 C 384.066406 542.453125 383.0625 541.710938 382.097656 540.917969 C 381.128906 540.125 380.207031 539.285156 379.320312 538.402344 C 378.4375 537.519531 377.597656 536.59375 376.804688 535.628906 C 376.007812 534.664062 375.265625 533.660156 374.570312 532.621094 C 373.875 531.582031 373.230469 530.511719 372.640625 529.410156 C 372.050781 528.304688 371.515625 527.179688 371.039062 526.023438 C 370.558594 524.867188 370.136719 523.691406 369.773438 522.496094 C 369.410156 521.300781 369.109375 520.089844 368.863281 518.863281 C 368.621094 517.636719 368.4375 516.402344 368.3125 515.15625 C 368.191406 513.914062 368.128906 512.667969 368.128906 511.417969 C 368.128906 510.164062 368.191406 508.917969 368.3125 507.675781 C 368.4375 506.429688 368.621094 505.195312 368.863281 503.96875 C 369.109375 502.742188 369.410156 501.53125 369.773438 500.335938 C 370.136719 499.140625 370.558594 497.964844 371.039062 496.808594 C 371.515625 495.652344 372.050781 494.527344 372.640625 493.421875 C 373.230469 492.320312 373.875 491.25 374.570312 490.210938 C 375.265625 489.171875 376.007812 488.171875 376.804688 487.203125 C 377.597656 486.238281 378.4375 485.3125 379.320312 484.429688 C 383.011719 480.757812 387.101562 477.972656 391.816406 476.105469 L 391.816406 339.371094 C 387.273438 337.503906 383.011719 334.75 379.320312 331.046875 C 377.988281 329.714844 376.761719 328.292969 375.640625 326.78125 C 374.519531 325.269531 373.515625 323.683594 372.628906 322.019531 C 371.742188 320.359375 370.980469 318.644531 370.351562 316.867188 C 369.71875 315.09375 369.21875 313.285156 368.855469 311.4375 C 368.492188 309.589844 368.265625 307.726562 368.179688 305.84375 C 368.089844 303.964844 368.144531 302.085938 368.332031 300.210938 C 368.523438 298.339844 368.851562 296.492188 369.316406 294.664062 C 369.78125 292.839844 370.375 291.058594 371.105469 289.324219 L 314.613281 232.863281 L 165.523438 381.796875 C 164.78125 382.539062 164.074219 383.316406 163.410156 384.128906 C 162.742188 384.941406 162.117188 385.78125 161.53125 386.65625 C 160.949219 387.527344 160.40625 388.429688 159.910156 389.355469 C 159.417969 390.28125 158.96875 391.230469 158.566406 392.203125 C 158.164062 393.171875 157.808594 394.160156 157.503906 395.164062 C 157.199219 396.171875 156.941406 397.1875 156.738281 398.21875 C 156.53125 399.25 156.378906 400.289062 156.273438 401.332031 C 156.171875 402.378906 156.121094 403.425781 156.121094 404.476562 C 156.121094 405.527344 156.171875 406.578125 156.273438 407.621094 C 156.378906 408.667969 156.53125 409.707031 156.738281 410.738281 C 156.941406 411.769531 157.199219 412.785156 157.503906 413.792969 C 157.808594 414.796875 158.164062 415.785156 158.566406 416.753906 C 158.96875 417.726562 159.417969 418.675781 159.910156 419.601562 C 160.40625 420.527344 160.949219 421.425781 161.53125 422.300781 C 162.117188 423.175781 162.742188 424.015625 163.410156 424.828125 C 164.074219 425.640625 164.78125 426.417969 165.523438 427.160156 L 382.964844 644.570312 C 383.707031 645.3125 384.484375 646.015625 385.292969 646.683594 C 386.105469 647.347656 386.949219 647.972656 387.820312 648.558594 C 388.695312 649.140625 389.59375 649.679688 390.519531 650.175781 C 391.445312 650.671875 392.394531 651.121094 393.367188 651.523438 C 394.335938 651.925781 395.324219 652.277344 396.328125 652.582031 C 397.332031 652.886719 398.351562 653.144531 399.382812 653.347656 C 400.410156 653.550781 401.449219 653.707031 402.496094 653.808594 C 403.539062 653.914062 404.585938 653.964844 405.636719 653.964844 C 406.6875 653.964844 407.734375 653.914062 408.78125 653.808594 C 409.828125 653.707031 410.863281 653.550781 411.894531 653.347656 C 412.925781 653.144531 413.941406 652.886719 414.945312 652.582031 C 415.953125 652.277344 416.9375 651.925781 417.910156 651.523438 C 418.878906 651.121094 419.828125 650.671875 420.753906 650.175781 C 421.679688 649.679688 422.582031 649.140625 423.453125 648.558594 C 424.328125 647.972656 425.167969 647.347656 425.980469 646.683594 C 426.792969 646.015625 427.570312 645.3125 428.3125 644.570312 L 644.738281 428.484375 C 645.484375 427.742188 646.1875 426.964844 646.855469 426.152344 C 647.523438 425.339844 648.148438 424.496094 648.730469 423.625 C 649.316406 422.75 649.855469 421.851562 650.351562 420.925781 C 650.847656 419.996094 651.296875 419.050781 651.699219 418.078125 C 652.101562 417.109375 652.457031 416.121094 652.761719 415.113281 C 653.066406 414.109375 653.320312 413.089844 653.527344 412.058594 C 653.730469 411.03125 653.886719 409.992188 653.988281 408.945312 C 654.089844 407.898438 654.144531 406.851562 654.144531 405.800781 C 654.144531 404.75 654.089844 403.703125 653.988281 402.65625 C 653.886719 401.609375 653.730469 400.574219 653.527344 399.542969 C 653.320312 398.511719 653.066406 397.492188 652.761719 396.488281 C 652.457031 395.484375 652.101562 394.496094 651.699219 393.523438 C 651.296875 392.554688 650.847656 391.605469 650.351562 390.679688 C 649.855469 389.75 649.316406 388.851562 648.730469 387.976562 C 648.148438 387.105469 647.523438 386.261719 646.855469 385.449219 C 646.1875 384.636719 645.484375 383.863281 644.738281 383.117188 " fill-opacity="1" fill-rule="nonzero"/></g></svg>