<svg xmlns="http://www.w3.org/2000/svg" xmlns:xlink="http://www.w3.org/1999/xlink" width="1080" zoomAndPan="magnify" viewBox="0 0 810 809.999993" height="1080" preserveAspectRatio="xMidYMid meet" version="1.0"><rect x="-81" width="972" fill="#ffffff" y="-80.999999" height="971.999992" fill-opacity="1"/><rect x="-81" width="972" fill="#040f0f" y="-80.999999" height="971.999992" fill-opacity="1"/><path fill="#fcfffc" d="M 405.152344 193.320312 C 285.195312 193.320312 187.945312 290.566406 187.945312 410.527344 C 187.945312 505.90625 249.433594 586.945312 334.933594 616.132812 L 336.46875 616.582031 C 347.332031 618.625 351.316406 611.917969 351.316406 606.140625 C 351.316406 600.984375 351.140625 587.308594 351.039062 569.21875 C 290.625 582.328125 277.878906 540.074219 277.878906 540.074219 C 273.707031 526.679688 265.164062 515.667969 253.9375 508.441406 L 253.707031 508.3125 C 234.035156 494.839844 255.226562 495.117188 255.226562 495.117188 C 269.523438 497.128906 281.5 505.515625 288.378906 517.277344 L 288.496094 517.496094 C 296.519531 531.90625 311.671875 541.496094 329.066406 541.496094 C 337.410156 541.496094 345.230469 539.292969 351.980469 535.425781 L 351.75 535.542969 C 352.792969 524.085938 357.847656 513.976562 365.496094 506.5 L 365.511719 506.488281 C 317.277344 501.054688 266.566406 482.371094 266.566406 399.15625 C 266.566406 398.765625 266.554688 398.316406 266.554688 397.867188 C 266.554688 375.835938 275.054688 355.792969 288.960938 340.828125 L 288.917969 340.886719 C 285.976562 333.035156 284.265625 323.96875 284.265625 314.511719 C 284.265625 303.257812 286.671875 292.550781 291.003906 282.90625 L 290.800781 283.398438 C 290.800781 283.398438 308.992188 277.574219 350.53125 305.660156 C 366.8125 301.011719 385.511719 298.332031 404.835938 298.332031 C 424.15625 298.332031 442.855469 301.011719 460.585938 306.007812 L 459.136719 305.660156 C 500.402344 277.574219 518.59375 283.398438 518.59375 283.398438 C 522.722656 292.695312 525.128906 303.53125 525.128906 314.929688 C 525.128906 324.230469 523.535156 333.152344 520.59375 341.4375 L 520.769531 340.886719 C 534.570312 355.835938 543.046875 375.882812 543.046875 397.910156 C 543.046875 398.359375 543.046875 398.796875 543.03125 399.230469 L 543.03125 399.15625 C 543.03125 482.601562 492.261719 500.96875 443.929688 506.3125 C 453.082031 515.683594 458.730469 528.503906 458.730469 542.652344 C 458.730469 544 458.671875 545.347656 458.570312 546.679688 L 458.585938 546.507812 C 458.585938 575.578125 458.3125 598.925781 458.3125 605.980469 C 458.3125 611.6875 462.105469 618.464844 473.246094 616.292969 C 560.554688 586.902344 622.316406 505.792969 622.316406 410.238281 C 622.316406 290.421875 525.1875 193.304688 405.386719 193.304688 C 405.296875 193.304688 405.195312 193.304688 405.109375 193.304688 L 405.125 193.304688 Z M 405.152344 193.320312 " fill-opacity="1" fill-rule="nonzero"/></svg>