<svg xmlns="http://www.w3.org/2000/svg" xmlns:xlink="http://www.w3.org/1999/xlink" width="1080" zoomAndPan="magnify" viewBox="0 0 810 809.999993" height="1080" preserveAspectRatio="xMidYMid meet" version="1.0"><defs><clipPath id="4263d55b81"><path d="M 195.996094 167 L 630.246094 167 L 630.246094 661 L 195.996094 661 Z M 195.996094 167 " clip-rule="nonzero"/></clipPath></defs><rect x="-81" width="972" fill="#ffffff" y="-80.999999" height="971.999992" fill-opacity="1"/><rect x="-81" width="972" fill="#ffffff" y="-80.999999" height="971.999992" fill-opacity="1"/><rect x="-81" width="972" fill="#ff9500" y="-80.999999" height="971.999992" fill-opacity="1"/><g clip-path="url(#4263d55b81)"><path fill="#e44d26" d="M 235.417969 610.949219 L 195.875 167.894531 L 630.371094 167.894531 L 590.796875 610.886719 L 412.84375 660.144531 Z M 235.417969 610.949219 " fill-opacity="1" fill-rule="nonzero"/></g><path fill="#f16529" d="M 556.902344 582.671875 L 590.734375 204.121094 L 413.121094 204.121094 L 413.121094 622.5 Z M 556.902344 582.671875 " fill-opacity="1" fill-rule="nonzero"/><path fill="#ebebeb" d="M 412.9375 258.457031 L 276.71875 258.457031 L 291.394531 422.78125 L 413.121094 422.78125 L 413.121094 368.445312 L 341.148438 368.445312 L 336.171875 312.804688 L 413.121094 312.804688 L 413.121094 258.457031 Z M 413.121094 509.386719 L 412.890625 509.449219 L 352.3125 493.113281 L 348.460938 449.777344 L 293.828125 449.777344 L 301.449219 535.09375 L 412.875 565.859375 L 413.121094 565.78125 Z M 413.121094 509.386719 " fill-opacity="1" fill-rule="nonzero"/><path fill="#ffffff" d="M 412.9375 422.78125 L 479.921875 422.78125 L 473.761719 493.234375 L 413.089844 509.585938 L 413.089844 566.121094 L 524.609375 535.246094 L 539.546875 368.414062 L 413.121094 368.414062 Z M 547.894531 273.039062 L 549.1875 258.457031 L 412.90625 258.457031 L 412.90625 312.789062 L 544.289062 312.789062 L 545.367188 300.574219 Z M 547.894531 273.039062 " fill-opacity="1" fill-rule="nonzero"/></svg>