<svg xmlns="http://www.w3.org/2000/svg" xmlns:xlink="http://www.w3.org/1999/xlink" width="1080" zoomAndPan="magnify" viewBox="0 0 810 809.999993" height="1080" preserveAspectRatio="xMidYMid meet" version="1.0"><defs><clipPath id="f8beb80d99"><path d="M 185.277344 185.277344 L 624.777344 185.277344 L 624.777344 624.777344 L 185.277344 624.777344 Z M 185.277344 185.277344 " clip-rule="nonzero"/></clipPath></defs><rect x="-81" width="972" fill="#ffffff" y="-80.999999" height="971.999992" fill-opacity="1"/><rect x="-81" width="972" fill="#f5c400" y="-80.999999" height="971.999992" fill-opacity="1"/><g clip-path="url(#f8beb80d99)"><path fill="#f7df1e" d="M 185.277344 185.277344 L 624.777344 185.277344 L 624.777344 624.777344 L 185.277344 624.777344 Z M 185.277344 185.277344 " fill-opacity="1" fill-rule="nonzero"/></g><path fill="#040f0f" d="M 300.835938 552.550781 L 334.46875 532.207031 C 340.957031 543.707031 346.859375 553.441406 361.023438 553.441406 C 374.585938 553.441406 383.152344 548.121094 383.152344 527.484375 L 383.152344 387.050781 L 424.441406 387.050781 L 424.441406 528.070312 C 424.441406 570.835938 399.378906 590.320312 362.792969 590.320312 C 329.75 590.320312 310.570312 573.203125 300.835938 552.550781 " fill-opacity="1" fill-rule="nonzero"/><path fill="#040f0f" d="M 446.882812 548.121094 L 480.511719 528.652344 C 489.371094 543.109375 500.875 553.734375 521.21875 553.734375 C 538.335938 553.734375 549.253906 545.183594 549.253906 533.375 C 549.253906 519.210938 538.042969 514.195312 519.160156 505.9375 L 508.839844 501.507812 C 479.035156 488.824219 459.277344 472.90625 459.277344 439.257812 C 459.277344 408.289062 482.863281 384.683594 519.757812 384.683594 C 546.007812 384.683594 564.894531 393.832031 578.457031 417.730469 L 546.300781 438.382812 C 539.226562 425.695312 531.554688 420.683594 519.757812 420.683594 C 507.65625 420.683594 499.980469 428.355469 499.980469 438.382812 C 499.980469 450.777344 507.65625 455.792969 525.355469 463.464844 L 535.675781 467.878906 C 570.78125 482.933594 590.558594 498.265625 590.558594 532.789062 C 590.558594 569.957031 561.355469 590.320312 522.109375 590.320312 C 483.757812 590.320312 458.984375 572.019531 446.882812 548.121094 " fill-opacity="1" fill-rule="nonzero"/></svg>