<svg xmlns="http://www.w3.org/2000/svg" xmlns:xlink="http://www.w3.org/1999/xlink" width="1080" zoomAndPan="magnify" viewBox="0 0 810 809.999993" height="1080" preserveAspectRatio="xMidYMid meet" version="1.0"><defs><clipPath id="964cb1fc31"><path d="M 180.175781 210.527344 L 630.175781 210.527344 L 630.175781 599.777344 L 180.175781 599.777344 Z M 180.175781 210.527344 " clip-rule="nonzero"/></clipPath></defs><rect x="-81" width="972" fill="#ffffff" y="-80.999999" height="971.999992" fill-opacity="1"/><rect x="-81" width="972" fill="#007fff" y="-80.999999" height="971.999992" fill-opacity="1"/><g clip-path="url(#964cb1fc31)"><path fill="#fcfffc" d="M 559.503906 476.277344 C 561.402344 475.183594 562.984375 473.613281 564.085938 471.714844 C 565.1875 469.820312 565.769531 467.667969 565.777344 465.476562 L 566.003906 393.128906 C 566.011719 390.933594 566.59375 388.78125 567.695312 386.886719 C 568.796875 384.988281 570.378906 383.417969 572.28125 382.324219 L 611.496094 359.796875 C 613.394531 358.707031 615.554688 358.132812 617.746094 358.136719 C 619.9375 358.140625 622.089844 358.71875 623.988281 359.816406 C 625.878906 360.917969 627.457031 362.492188 628.550781 364.390625 C 629.644531 366.292969 630.226562 368.445312 630.226562 370.636719 L 630.226562 502.167969 C 630.226562 504.367188 629.644531 506.527344 628.542969 508.429688 C 627.441406 510.332031 625.855469 511.910156 623.949219 513.007812 L 475.941406 598.019531 C 474.050781 599.105469 471.910156 599.675781 469.730469 599.679688 C 467.550781 599.679688 465.40625 599.113281 463.515625 598.03125 L 347.363281 531.597656 C 345.449219 530.503906 343.859375 528.925781 342.75 527.019531 C 341.644531 525.113281 341.0625 522.949219 341.058594 520.746094 L 341.058594 454.421875 C 341.058594 454.347656 341.148438 454.300781 341.222656 454.335938 C 341.285156 454.375 341.375 454.335938 341.375 454.246094 L 341.375 454.171875 C 341.375 454.125 341.398438 454.074219 341.449219 454.046875 L 437.113281 399.089844 C 437.199219 399.039062 437.160156 398.902344 437.0625 398.902344 C 437.035156 398.902344 437.007812 398.894531 436.992188 398.875 C 436.972656 398.855469 436.960938 398.828125 436.960938 398.804688 L 437.148438 333.78125 C 437.15625 331.582031 436.585938 329.421875 435.492188 327.511719 C 434.398438 325.605469 432.824219 324.019531 430.921875 322.917969 C 429.019531 321.8125 426.859375 321.230469 424.660156 321.230469 C 422.460938 321.226562 420.300781 321.804688 418.398438 322.90625 L 347.300781 363.875 C 345.402344 364.96875 343.25 365.542969 341.0625 365.542969 C 338.871094 365.542969 336.722656 364.96875 334.824219 363.875 L 263.5 322.808594 C 261.601562 321.714844 259.445312 321.136719 257.253906 321.140625 C 255.0625 321.140625 252.90625 321.71875 251.007812 322.816406 C 249.109375 323.914062 247.535156 325.488281 246.4375 327.386719 C 245.339844 329.289062 244.761719 331.441406 244.761719 333.632812 L 244.761719 451.148438 C 244.761719 453.339844 244.1875 455.492188 243.097656 457.390625 C 242.003906 459.289062 240.433594 460.867188 238.539062 461.96875 C 236.644531 463.070312 234.496094 463.652344 232.304688 463.660156 C 230.117188 463.667969 227.960938 463.101562 226.058594 462.015625 L 186.476562 439.382812 C 184.5625 438.285156 182.96875 436.703125 181.863281 434.792969 C 180.753906 432.882812 180.175781 430.714844 180.175781 428.507812 L 180.527344 223.101562 C 180.535156 220.914062 181.113281 218.765625 182.210938 216.871094 C 183.308594 214.976562 184.882812 213.402344 186.78125 212.308594 C 188.675781 211.214844 190.824219 210.636719 193.015625 210.632812 C 195.203125 210.628906 197.355469 211.203125 199.253906 212.292969 L 334.835938 290.160156 C 336.730469 291.25 338.875 291.824219 341.0625 291.824219 C 343.246094 291.824219 345.394531 291.25 347.289062 290.160156 L 482.828125 212.289062 C 484.730469 211.195312 486.886719 210.625 489.078125 210.628906 C 491.273438 210.632812 493.425781 211.210938 495.324219 212.3125 C 497.21875 213.410156 498.796875 214.992188 499.890625 216.890625 C 500.984375 218.792969 501.558594 220.945312 501.558594 223.140625 L 501.558594 428.59375 C 501.558594 430.789062 500.980469 432.949219 499.878906 434.851562 C 498.78125 436.753906 497.199219 438.335938 495.296875 439.433594 L 424.308594 480.3125 C 422.402344 481.414062 420.820312 482.996094 419.722656 484.902344 C 418.621094 486.808594 418.046875 488.972656 418.050781 491.171875 C 418.058594 493.375 418.644531 495.535156 419.75 497.433594 C 420.859375 499.335938 422.449219 500.914062 424.359375 502.003906 L 463.515625 524.292969 C 465.40625 525.371094 467.546875 525.9375 469.726562 525.929688 C 471.902344 525.925781 474.042969 525.351562 475.929688 524.269531 L 559.503906 476.273438 Z M 567.714844 291.976562 C 567.71875 294.1875 568.304688 296.359375 569.417969 298.269531 C 570.535156 300.175781 572.136719 301.757812 574.058594 302.847656 C 575.984375 303.933594 578.160156 304.496094 580.371094 304.46875 C 582.582031 304.4375 584.746094 303.824219 586.644531 302.691406 L 624.148438 280.1875 C 626 279.078125 627.53125 277.507812 628.601562 275.628906 C 629.664062 273.753906 630.226562 271.632812 630.226562 269.472656 L 630.226562 223.617188 C 630.21875 221.40625 629.632812 219.238281 628.515625 217.328125 C 627.402344 215.421875 625.796875 213.84375 623.875 212.753906 C 621.953125 211.667969 619.773438 211.109375 617.5625 211.136719 C 615.355469 211.164062 613.191406 211.777344 611.296875 212.914062 L 573.792969 235.417969 C 571.941406 236.527344 570.40625 238.097656 569.34375 239.972656 C 568.277344 241.851562 567.71875 243.972656 567.714844 246.132812 L 567.714844 291.988281 Z M 567.714844 291.976562 " fill-opacity="1" fill-rule="nonzero"/></g></svg>