<svg xmlns="http://www.w3.org/2000/svg" xmlns:xlink="http://www.w3.org/1999/xlink" width="1080" zoomAndPan="magnify" viewBox="0 0 810 809.999993" height="1080" preserveAspectRatio="xMidYMid meet" version="1.0"><defs><clipPath id="f3f4ed6b64"><path d="M 175.53125 201 L 634.53125 201 L 634.53125 609 L 175.53125 609 Z M 175.53125 201 " clip-rule="nonzero"/></clipPath></defs><rect x="-81" width="972" fill="#ffffff" y="-80.999999" height="971.999992" fill-opacity="1"/><rect x="-81" width="972" fill="#ffffff" y="-80.999999" height="971.999992" fill-opacity="1"/><rect x="-81" width="972" fill="#00d8ff" y="-80.999999" height="971.999992" fill-opacity="1"/><g clip-path="url(#f3f4ed6b64)"><path fill="#fcfffc" d="M 552.613281 333.226562 C 547.871094 331.589844 542.953125 330.042969 537.871094 328.582031 C 538.710938 325.183594 539.480469 321.828125 540.160156 318.53125 C 551.308594 264.382812 544.027344 220.761719 519.101562 206.402344 C 495.195312 192.632812 456.117188 206.988281 416.644531 241.316406 C 412.851562 244.617188 409.039062 248.109375 405.246094 251.773438 C 402.703125 249.351562 400.179688 247.007812 397.660156 244.769531 C 356.289062 208.066406 314.824219 192.597656 289.929688 207 C 266.054688 220.8125 258.984375 261.820312 269.03125 313.132812 C 270 318.089844 271.136719 323.152344 272.417969 328.300781 C 266.550781 329.964844 260.886719 331.738281 255.464844 333.625 C 206.96875 350.523438 175.996094 377.003906 175.996094 404.476562 C 175.996094 432.835938 209.246094 461.300781 259.757812 478.558594 C 263.742188 479.914062 267.878906 481.203125 272.140625 482.417969 C 270.757812 487.980469 269.554688 493.433594 268.546875 498.761719 C 258.964844 549.1875 266.445312 589.222656 290.257812 602.9375 C 314.851562 617.117188 356.128906 602.546875 396.316406 567.445312 C 399.5 564.671875 402.6875 561.722656 405.871094 558.648438 C 410.023438 562.617188 414.15625 566.390625 418.253906 569.929688 C 457.191406 603.402344 495.640625 616.921875 519.421875 603.171875 C 543.988281 588.957031 551.988281 545.933594 541.609375 493.613281 C 540.824219 489.609375 539.890625 485.53125 538.871094 481.382812 C 541.769531 480.523438 544.617188 479.628906 547.390625 478.71875 C 599.90625 461.320312 634.066406 433.226562 634.066406 404.476562 C 634.066406 376.902344 602.089844 350.246094 552.613281 333.226562 Z M 541.234375 460.15625 C 538.730469 460.980469 536.152344 461.785156 533.539062 462.554688 C 527.742188 444.226562 519.921875 424.714844 510.332031 404.566406 C 519.476562 384.894531 526.992188 365.644531 532.628906 347.421875 C 537.316406 348.777344 541.859375 350.207031 546.246094 351.714844 C 588.632812 366.296875 614.488281 387.863281 614.488281 404.476562 C 614.488281 422.160156 586.574219 445.136719 541.234375 460.15625 Z M 522.410156 497.402344 C 527.007812 520.542969 527.652344 541.464844 524.613281 557.824219 C 521.890625 572.523438 516.398438 582.320312 509.617188 586.238281 C 495.175781 594.589844 464.3125 583.734375 431.03125 555.105469 C 427.199219 551.816406 423.351562 548.3125 419.507812 544.609375 C 432.40625 530.5 445.308594 514.105469 457.90625 495.882812 C 480.039062 493.933594 500.957031 490.714844 519.941406 486.335938 C 520.871094 490.109375 521.695312 493.792969 522.410156 497.402344 Z M 332.167969 584.789062 C 318.066406 589.777344 306.832031 589.921875 300.042969 586.003906 C 285.59375 577.671875 279.585938 545.523438 287.777344 502.410156 C 288.71875 497.476562 289.835938 492.398438 291.125 487.210938 C 309.886719 491.359375 330.65625 494.347656 352.851562 496.132812 C 365.527344 513.960938 378.804688 530.339844 392.171875 544.683594 C 389.253906 547.507812 386.339844 550.1875 383.441406 552.710938 C 365.671875 568.25 347.863281 579.265625 332.167969 584.789062 Z M 266.09375 460.050781 C 243.757812 452.414062 225.3125 442.507812 212.667969 431.671875 C 201.304688 421.964844 195.570312 412.308594 195.570312 404.476562 C 195.570312 387.808594 220.4375 366.542969 261.914062 352.09375 C 266.945312 350.339844 272.214844 348.6875 277.679688 347.132812 C 283.414062 365.765625 290.933594 385.253906 300.003906 404.941406 C 290.8125 424.929688 283.1875 444.726562 277.398438 463.589844 C 273.5 462.464844 269.726562 461.285156 266.09375 460.050781 Z M 288.242188 309.378906 C 279.632812 265.414062 285.351562 232.25 299.738281 223.925781 C 315.0625 215.058594 348.949219 227.699219 384.65625 259.390625 C 386.949219 261.417969 389.238281 263.539062 391.546875 265.730469 C 378.234375 280.011719 365.082031 296.269531 352.515625 313.988281 C 330.972656 315.984375 310.351562 319.1875 291.390625 323.480469 C 290.199219 318.691406 289.144531 313.980469 288.242188 309.378906 Z M 485.820312 358.136719 C 481.292969 350.3125 476.640625 342.675781 471.898438 335.242188 C 486.519531 337.089844 500.511719 339.542969 513.664062 342.539062 C 509.726562 355.183594 504.804688 368.402344 499.007812 381.960938 C 494.855469 374.074219 490.453125 366.125 485.820312 358.136719 Z M 405.246094 279.707031 C 414.28125 289.480469 423.320312 300.386719 432.210938 312.226562 C 423.246094 311.804688 414.175781 311.582031 405.03125 311.582031 C 395.976562 311.582031 386.976562 311.796875 378.066406 312.214844 C 386.960938 300.488281 396.085938 289.59375 405.246094 279.707031 Z M 324.15625 358.273438 C 319.632812 366.117188 315.316406 374.023438 311.226562 381.945312 C 305.527344 368.4375 300.652344 355.15625 296.671875 342.332031 C 309.742188 339.410156 323.679688 337.019531 338.199219 335.207031 C 333.390625 342.707031 328.699219 350.402344 324.15625 358.269531 Z M 338.617188 475.125 C 323.613281 473.460938 309.46875 471.191406 296.402344 468.347656 C 300.449219 455.292969 305.429688 441.738281 311.25 427.933594 C 315.347656 435.855469 319.679688 443.761719 324.234375 451.628906 L 324.238281 451.628906 C 328.875 459.636719 333.683594 467.46875 338.617188 475.125 Z M 405.785156 530.609375 C 396.515625 520.613281 387.265625 509.546875 378.226562 497.652344 C 386.996094 497.992188 395.941406 498.171875 405.03125 498.171875 C 414.371094 498.171875 423.605469 497.957031 432.675781 497.566406 C 423.765625 509.671875 414.75 520.757812 405.785156 530.609375 Z M 499.1875 427.238281 C 505.304688 441.183594 510.476562 454.667969 514.574219 467.507812 C 501.296875 470.527344 486.949219 472.960938 471.847656 474.785156 C 476.605469 467.257812 481.292969 459.476562 485.910156 451.484375 C 490.582031 443.402344 495 435.300781 499.1875 427.238281 Z M 468.945312 441.722656 C 461.789062 454.132812 454.4375 465.96875 446.972656 477.144531 C 433.394531 478.109375 419.347656 478.609375 405.03125 478.609375 C 390.769531 478.609375 376.902344 478.179688 363.554688 477.304688 C 355.789062 465.988281 348.285156 454.113281 341.167969 441.828125 L 341.171875 441.828125 C 334.074219 429.582031 327.542969 417.222656 321.625 404.941406 C 327.542969 392.636719 334.054688 380.265625 341.113281 368.039062 L 341.109375 368.039062 C 348.183594 355.78125 355.628906 343.960938 363.324219 332.707031 C 376.941406 331.675781 390.914062 331.140625 405.03125 331.140625 C 419.222656 331.140625 433.195312 331.679688 446.8125 332.71875 C 454.398438 343.890625 461.789062 355.671875 468.894531 367.933594 C 476.070312 380.335938 482.671875 392.621094 488.628906 404.671875 C 482.6875 416.921875 476.105469 429.328125 468.945312 441.722656 Z M 509.316406 223.339844 C 524.667969 232.179688 530.625 267.828125 520.980469 314.578125 C 520.371094 317.5625 519.675781 320.601562 518.921875 323.679688 C 499.921875 319.296875 479.289062 316.035156 457.691406 314.011719 C 445.09375 296.097656 432.050781 279.8125 418.953125 265.71875 C 422.476562 262.332031 426.003906 259.105469 429.492188 256.0625 C 463.3125 226.652344 494.929688 215.039062 509.316406 223.339844 Z M 405.03125 363.589844 C 427.613281 363.589844 445.9375 381.886719 445.9375 404.46875 C 445.9375 427.035156 427.613281 445.347656 405.03125 445.347656 C 382.449219 445.347656 364.128906 427.035156 364.128906 404.46875 C 364.128906 381.886719 382.449219 363.589844 405.03125 363.589844 Z M 405.03125 363.589844 " fill-opacity="1" fill-rule="nonzero"/></g></svg>