<svg xmlns="http://www.w3.org/2000/svg" xmlns:xlink="http://www.w3.org/1999/xlink" width="1080" zoomAndPan="magnify" viewBox="0 0 810 809.999993" height="1080" preserveAspectRatio="xMidYMid meet" version="1.0"><rect x="-81" width="972" fill="#ffffff" y="-80.999999" height="971.999992" fill-opacity="1"/><rect x="-81" width="972" fill="#56aeff" y="-80.999999" height="971.999992" fill-opacity="1"/><path fill="#fcfffc" d="M 404.824219 290.015625 C 353.484375 290.015625 321.414062 315.523438 308.574219 366.554688 C 327.824219 341.046875 350.289062 331.480469 375.949219 337.851562 C 390.597656 341.492188 401.070312 352.058594 412.636719 363.742188 C 431.523438 382.78125 453.371094 404.824219 501.074219 404.824219 C 552.414062 404.824219 584.484375 379.316406 597.324219 328.285156 C 578.074219 353.792969 555.628906 363.359375 529.949219 356.988281 C 515.296875 353.347656 504.828125 342.78125 493.238281 331.097656 C 474.375 312.039062 452.542969 290.015625 404.824219 290.015625 Z M 308.574219 404.824219 C 257.234375 404.824219 225.164062 430.328125 212.324219 481.359375 C 231.574219 455.835938 254.039062 446.289062 279.699219 452.660156 C 294.347656 456.296875 304.820312 466.867188 316.40625 478.550781 C 335.273438 497.589844 357.121094 519.628906 404.84375 519.628906 C 456.183594 519.628906 488.253906 494.125 501.09375 443.09375 C 481.84375 468.597656 459.378906 478.164062 433.71875 471.792969 C 419.066406 468.15625 408.597656 457.585938 397.027344 445.902344 C 378.125 426.863281 356.273438 404.824219 308.574219 404.824219 Z M 308.574219 404.824219 " fill-opacity="1" fill-rule="evenodd"/></svg>