<svg xmlns="http://www.w3.org/2000/svg" xmlns:xlink="http://www.w3.org/1999/xlink" width="1080" zoomAndPan="magnify" viewBox="0 0 810 809.999993" height="1080" preserveAspectRatio="xMidYMid meet" version="1.0"><defs><clipPath id="13370879f0"><path d="M 182.847656 182.847656 L 626.847656 182.847656 L 626.847656 626.847656 L 182.847656 626.847656 Z M 182.847656 182.847656 " clip-rule="nonzero"/></clipPath></defs><rect x="-81" width="972" fill="#ffffff" y="-80.999999" height="971.999992" fill-opacity="1"/><rect x="-81" width="972" fill="#145da0" y="-80.999999" height="971.999992" fill-opacity="1"/><g clip-path="url(#13370879f0)"><path fill="#007acc" d="M 182.847656 626.847656 L 626.847656 626.847656 L 626.847656 182.847656 L 182.847656 182.847656 Z M 182.847656 626.847656 " fill-opacity="1" fill-rule="nonzero"/></g><path fill="#fcfffc" d="M 281.015625 406.304688 L 280.875 424.5 L 338.664062 424.5 L 338.664062 588.710938 L 379.542969 588.710938 L 379.542969 424.5 L 437.332031 424.5 L 437.332031 406.667969 C 437.332031 396.800781 437.121094 388.546875 436.839844 388.335938 C 436.628906 388.058594 401.460938 387.921875 358.816406 387.992188 L 281.222656 388.199219 Z M 281.015625 406.304688 " fill-opacity="1" fill-rule="nonzero"/><path fill="#fcfffc" d="M 541.117188 387.695312 C 552.390625 390.503906 560.996094 395.519531 568.886719 403.6875 C 572.960938 408.058594 579.03125 416.019531 579.515625 417.925781 C 579.65625 418.5 560.351562 431.453125 548.644531 438.722656 C 548.230469 439 546.546875 437.160156 544.640625 434.351562 C 538.933594 426.023438 532.933594 422.433594 523.773438 421.8125 C 510.316406 420.890625 501.644531 427.933594 501.714844 439.710938 C 501.714844 443.160156 502.214844 445.207031 503.621094 448.015625 C 506.585938 454.15625 512.085938 457.816406 529.34375 465.292969 C 561.132812 478.957031 574.730469 487.976562 583.195312 500.8125 C 592.628906 515.121094 594.746094 537.945312 588.328125 554.925781 C 581.285156 573.394531 563.804688 585.933594 539.210938 590.097656 C 531.597656 591.433594 513.558594 591.222656 505.371094 589.75 C 487.542969 586.578125 470.632812 577.765625 460.210938 566.214844 C 456.117188 561.707031 448.15625 549.929688 448.640625 549.078125 C 448.867188 548.800781 450.6875 547.675781 452.734375 546.476562 C 454.710938 545.351562 462.1875 541.050781 469.230469 536.957031 L 481.976562 529.566406 L 484.664062 533.503906 C 488.394531 539.210938 496.578125 547.03125 501.503906 549.652344 C 515.675781 557.109375 535.117188 556.050781 544.707031 547.464844 C 548.800781 543.71875 550.484375 539.851562 550.484375 534.144531 C 550.484375 528.996094 549.859375 526.742188 547.171875 522.871094 C 543.71875 517.929688 536.679688 513.765625 516.664062 505.113281 C 493.753906 495.246094 483.882812 489.105469 474.867188 479.375 C 469.644531 473.738281 464.71875 464.71875 462.671875 457.175781 C 460.972656 450.914062 460.558594 435.199219 461.890625 428.851562 C 466.628906 406.722656 483.328125 391.285156 507.417969 386.707031 C 515.242188 385.234375 533.433594 385.789062 541.117188 387.695312 Z M 541.117188 387.695312 " fill-opacity="1" fill-rule="nonzero"/></svg>