<svg xmlns="http://www.w3.org/2000/svg" xmlns:xlink="http://www.w3.org/1999/xlink" width="500" zoomAndPan="magnify" viewBox="0 0 375 374.999991" height="500" preserveAspectRatio="xMidYMid meet" version="1.0"><defs><clipPath id="7887556052"><path d="M 239 90 L 363.445312 90 L 363.445312 284 L 239 284 Z M 239 90 " clip-rule="nonzero"/></clipPath><clipPath id="32a4b60336"><path d="M 136 54.238281 L 239.707031 54.238281 L 239.707031 320.332031 L 136 320.332031 Z M 136 54.238281 " clip-rule="nonzero"/></clipPath></defs><g clip-path="url(#7887556052)"><path fill="#2ba84a" d="M 360.832031 182.046875 L 271.40625 92.769531 C 268.617188 90.003906 263.691406 90.003906 260.921875 92.769531 L 241.535156 112.125 C 238.636719 115.015625 238.636719 119.695312 241.535156 122.589844 L 306.324219 187.269531 L 241.535156 251.949219 C 238.636719 254.839844 238.636719 259.539062 241.535156 262.429688 L 260.921875 281.769531 C 262.316406 283.160156 264.199219 283.9375 266.171875 283.9375 C 268.128906 283.9375 270.011719 283.160156 271.40625 281.769531 L 360.832031 192.507812 C 363.730469 189.617188 363.730469 184.9375 360.832031 182.046875 Z M 360.832031 182.046875 " fill-opacity="1" fill-rule="nonzero"/></g><path fill="#2ba84a" d="M 134.074219 251.949219 L 69.285156 187.269531 L 134.09375 122.589844 C 135.46875 121.214844 136.265625 119.335938 136.265625 117.367188 C 136.265625 115.394531 135.488281 113.515625 134.09375 112.125 L 114.703125 92.769531 C 113.308594 91.394531 111.425781 90.601562 109.453125 90.601562 C 107.5 90.601562 105.597656 91.394531 104.222656 92.769531 L 14.792969 182.046875 C 11.898438 184.9375 11.898438 189.617188 14.792969 192.507812 L 104.203125 281.769531 C 105.597656 283.160156 107.480469 283.9375 109.453125 283.9375 C 111.410156 283.9375 113.308594 283.160156 114.703125 281.769531 L 134.074219 262.429688 C 136.972656 259.539062 136.972656 254.839844 134.074219 251.949219 Z M 134.074219 251.949219 " fill-opacity="1" fill-rule="nonzero"/><g clip-path="url(#32a4b60336)"><path fill="#2ba84a" d="M 238.65625 62.734375 C 237.714844 61.015625 236.121094 59.734375 234.238281 59.171875 L 218.523438 54.546875 C 214.597656 53.390625 210.46875 55.632812 209.3125 59.554688 L 136.355469 306.203125 C 135.792969 308.097656 136.011719 310.121094 136.953125 311.839844 C 137.894531 313.554688 139.488281 314.839844 141.371094 315.398438 L 157.082031 320.027344 C 157.789062 320.242188 158.496094 320.332031 159.183594 320.332031 C 162.386719 320.332031 165.339844 318.253906 166.296875 315.039062 L 239.253906 68.371094 C 239.816406 66.492188 239.597656 64.46875 238.65625 62.734375 Z M 238.65625 62.734375 " fill-opacity="1" fill-rule="nonzero"/></g></svg>