<svg xmlns="http://www.w3.org/2000/svg" xmlns:xlink="http://www.w3.org/1999/xlink" width="500" zoomAndPan="magnify" viewBox="0 0 375 374.999991" height="500" preserveAspectRatio="xMidYMid meet" version="1.0"><defs><clipPath id="473bbc0c73"><path d="M 4 44.8125 L 369 44.8125 L 369 345.078125 L 4 345.078125 Z M 4 44.8125 " clip-rule="nonzero"/></clipPath><clipPath id="9b8527b1e1"><path d="M 144 78.449219 L 223.984375 78.449219 L 223.984375 285.910156 L 144 285.910156 Z M 144 78.449219 " clip-rule="nonzero"/></clipPath></defs><g clip-path="url(#473bbc0c73)"><path fill="#2ba84a" d="M 185.546875 44.8125 C 84.34375 44.8125 4.828125 107.773438 4.828125 185.261719 C 4.828125 224.003906 33.742188 262.746094 65.066406 289.382812 C 62.65625 316.019531 21.695312 328.128906 4.828125 345.078125 C 40.96875 345.078125 84.34375 332.972656 108.4375 313.597656 C 127.714844 318.441406 166.269531 325.707031 187.953125 325.707031 C 289.15625 325.707031 368.671875 262.746094 368.671875 185.261719 C 368.671875 107.773438 286.746094 44.8125 185.546875 44.8125 Z M 185.546875 44.8125 " fill-opacity="1" fill-rule="nonzero"/></g><path fill="#ffffff" d="M 317.292969 178.09375 L 248.402344 108.488281 C 246.253906 106.332031 242.460938 106.332031 240.328125 108.488281 L 225.390625 123.578125 C 223.160156 125.832031 223.160156 129.480469 225.390625 131.738281 L 275.304688 182.164062 L 225.390625 232.59375 C 223.160156 234.847656 223.160156 238.511719 225.390625 240.765625 L 240.328125 255.839844 C 241.402344 256.925781 242.851562 257.53125 244.371094 257.53125 C 245.878906 257.53125 247.328125 256.925781 248.402344 255.839844 L 317.292969 186.25 C 319.523438 183.996094 319.523438 180.347656 317.292969 178.09375 Z M 317.292969 178.09375 " fill-opacity="1" fill-rule="nonzero"/><path fill="#ffffff" d="M 142.609375 232.59375 L 92.699219 182.164062 L 142.625 131.738281 C 143.683594 130.664062 144.296875 129.199219 144.296875 127.664062 C 144.296875 126.128906 143.699219 124.664062 142.625 123.578125 L 127.6875 108.488281 C 126.613281 107.417969 125.164062 106.796875 123.644531 106.796875 C 122.136719 106.796875 120.671875 107.417969 119.613281 108.488281 L 50.722656 178.09375 C 48.492188 180.347656 48.492188 183.996094 50.722656 186.25 L 119.597656 255.839844 C 120.671875 256.925781 122.125 257.53125 123.644531 257.53125 C 125.148438 257.53125 126.613281 256.925781 127.6875 255.839844 L 142.609375 240.765625 C 144.839844 238.511719 144.839844 234.847656 142.609375 232.59375 Z M 142.609375 232.59375 " fill-opacity="1" fill-rule="nonzero"/><g clip-path="url(#9b8527b1e1)"><path fill="#ffffff" d="M 223.175781 85.070312 C 222.449219 83.730469 221.222656 82.730469 219.769531 82.296875 L 207.667969 78.6875 C 204.640625 77.785156 201.460938 79.535156 200.566406 82.589844 L 144.367188 274.890625 C 143.933594 276.371094 144.101562 277.949219 144.828125 279.285156 C 145.550781 280.625 146.78125 281.625 148.230469 282.0625 L 160.335938 285.667969 C 160.878906 285.839844 161.421875 285.910156 161.953125 285.910156 C 164.421875 285.910156 166.695312 284.289062 167.433594 281.78125 L 223.632812 89.46875 C 224.066406 88 223.898438 86.421875 223.175781 85.070312 Z M 223.175781 85.070312 " fill-opacity="1" fill-rule="nonzero"/></g></svg>