<svg xmlns="http://www.w3.org/2000/svg" xmlns:xlink="http://www.w3.org/1999/xlink" width="680" zoomAndPan="magnify" viewBox="0 0 510 135.000003" height="180" preserveAspectRatio="xMidYMid meet" version="1.0"><defs><g/></defs><g fill="#2ba84a" fill-opacity="1"><g transform="translate(10.974601, 84.393467)"><g><path d="M 8.582031 -21.359375 L 25.800781 -29.878906 L 25.800781 -36.632812 L 0.972656 -23.367188 L 0.972656 -19.167969 L 25.800781 -6.269531 L 25.800781 -12.71875 Z M 8.582031 -21.359375 "/></g></g></g><g fill="#000000" fill-opacity="1"><g transform="translate(33.972216, 84.393467)"><g><path d="M 2.375 -21.175781 C 2.375 -15.273438 4.929688 -9.859375 8.582031 -5.964844 C 12.292969 -2.070312 17.648438 0.304688 23.429688 0.304688 C 33.347656 0.304688 41.136719 -6.269531 43.570312 -15.945312 L 37.546875 -15.945312 C 35.355469 -9.492188 29.878906 -5.78125 23.429688 -5.78125 C 19.351562 -5.78125 15.273438 -7.484375 12.597656 -10.285156 C 9.917969 -13.082031 8.335938 -16.917969 8.335938 -21.175781 C 8.335938 -25.558594 9.980469 -29.332031 12.65625 -32.132812 C 15.335938 -34.929688 19.351562 -36.878906 23.429688 -36.878906 C 29.695312 -36.878906 34.929688 -33.46875 37.183594 -27.082031 L 43.265625 -27.082031 C 40.832031 -36.695312 33.164062 -42.964844 23.429688 -42.964844 C 17.648438 -42.964844 12.109375 -40.285156 8.398438 -36.453125 C 4.746094 -32.558594 2.375 -27.203125 2.375 -21.175781 Z M 2.375 -21.175781 "/></g></g></g><g fill="#000000" fill-opacity="1"><g transform="translate(74.254455, 84.393467)"><g><path d="M 38.765625 0 L 38.765625 -32.921875 L 32.800781 -32.921875 L 32.859375 -28.539062 C 29.941406 -32.496094 25.011719 -33.46875 20.933594 -33.46875 C 9.796875 -33.46875 3.347656 -25.496094 3.347656 -16.613281 C 3.347656 -7.546875 9.554688 0.546875 21.054688 0.546875 C 25.132812 0.488281 30.425781 -0.851562 32.800781 -4.441406 L 32.800781 0 Z M 32.800781 -16.492188 C 32.800781 -8.582031 26.410156 -4.746094 20.933594 -4.746094 C 13.632812 -4.746094 9.3125 -10.40625 9.3125 -16.613281 C 9.3125 -23.125 13.691406 -28.238281 20.933594 -28.238281 C 26.53125 -28.238281 32.800781 -24.339844 32.800781 -16.492188 Z M 32.800781 -16.492188 "/></g></g></g><g fill="#000000" fill-opacity="1"><g transform="translate(111.372495, 84.393467)"><g><path d="M 8.640625 -45.578125 L 4.261719 -39.070312 L 9.554688 -39.070312 L 16.429688 -45.578125 Z M 4.929688 0 L 10.894531 0 L 10.894531 -33.53125 L 4.929688 -33.53125 Z M 4.929688 0 "/></g></g></g><g fill="#000000" fill-opacity="1"><g transform="translate(122.142449, 84.393467)"><g><path d="M 31.460938 -4.320312 L 31.460938 9.613281 L 37.425781 9.613281 L 37.425781 -32.921875 L 31.460938 -32.921875 L 31.460938 -28.539062 C 29.089844 -32.132812 24.464844 -33.46875 20.324219 -33.46875 C 8.882812 -33.46875 2.617188 -25.375 2.617188 -16.371094 C 2.617188 -7.425781 9.25 0.546875 20.386719 0.546875 C 24.464844 0.546875 28.601562 -0.425781 31.460938 -4.320312 Z M 31.460938 -16.492188 C 31.460938 -8.640625 25.925781 -4.746094 20.386719 -4.746094 C 13.082031 -4.746094 8.582031 -10.589844 8.582031 -16.492188 C 8.582031 -22.394531 13.082031 -28.238281 20.386719 -28.238281 C 25.863281 -28.238281 31.460938 -24.339844 31.460938 -16.492188 Z M 31.460938 -16.492188 "/></g></g></g><g fill="#000000" fill-opacity="1"><g transform="translate(158.591141, 84.393467)"><g><path d="M 28.84375 -4.320312 L 28.84375 0 L 34.503906 0 L 34.503906 -33.226562 L 28.539062 -33.226562 L 28.539062 -15.03125 C 28.539062 -9.25 25.132812 -4.808594 18.863281 -4.808594 C 11.683594 -4.808594 10.101562 -9.066406 10.101562 -15.214844 L 10.101562 -33.226562 L 4.136719 -33.226562 L 4.136719 -15.214844 C 4.136719 -5.78125 8.457031 0.488281 18.4375 0.488281 C 22.699219 0.488281 26.410156 -0.730469 28.84375 -4.320312 Z M 28.84375 -4.320312 "/></g></g></g><g fill="#000000" fill-opacity="1"><g transform="translate(192.179871, 84.393467)"><g><path d="M 36.878906 -17.890625 C 36.207031 -28.238281 28.175781 -33.410156 20.019531 -33.410156 C 11.320312 -33.410156 2.921875 -27.75 2.921875 -16.429688 C 2.921875 -5.113281 11.441406 0.609375 19.898438 0.609375 C 26.652344 0.609375 33.410156 -2.980469 35.902344 -10.164062 L 29.757812 -10.164062 C 27.808594 -6.449219 24.039062 -4.6875 19.960938 -4.6875 C 15.03125 -4.6875 8.882812 -8.582031 8.882812 -15.03125 L 36.757812 -15.03125 C 36.878906 -15.578125 36.9375 -16.1875 36.9375 -16.855469 C 36.9375 -17.222656 36.9375 -17.527344 36.878906 -17.890625 Z M 30.609375 -19.960938 L 9.128906 -19.960938 C 10.34375 -25.800781 15.214844 -28.175781 20.019531 -28.175781 C 24.769531 -28.175781 29.453125 -25.863281 30.609375 -19.960938 Z M 30.609375 -19.960938 "/></g></g></g><g fill="#000000" fill-opacity="1"><g transform="translate(226.742216, 84.393467)"><g><path d="M 10.527344 -10.769531 L 27.808594 -10.769531 L 31.886719 0 L 38.460938 0 L 21.359375 -43.144531 L 16.855469 -43.144531 L -0.242188 0 L 6.390625 0 Z M 25.558594 -16.550781 L 12.78125 -16.550781 L 19.167969 -33.347656 Z M 25.558594 -16.550781 "/></g></g></g><g fill="#000000" fill-opacity="1"><g transform="translate(259.72245, 84.393467)"><g><path d="M 11.320312 -28.84375 L 11.320312 -33.46875 L 5.355469 -33.46875 L 5.355469 0 L 11.320312 0 L 11.320312 -17.890625 C 11.320312 -24.339844 15.273438 -27.933594 20.507812 -27.933594 C 25.984375 -27.933594 27.75 -23.125 27.75 -18.5 L 27.75 0 L 33.714844 0 L 33.714844 -18.558594 C 33.714844 -23.914062 36.632812 -27.933594 42.476562 -27.933594 C 48.195312 -27.933594 49.351562 -23.308594 49.351562 -18.683594 L 49.351562 0 L 55.316406 0 L 55.316406 -18.742188 C 55.316406 -27.082031 51.359375 -33.46875 42.292969 -33.46875 C 37.484375 -33.410156 33.773438 -31.402344 31.765625 -27.75 C 29.332031 -32.375 25.195312 -33.46875 20.570312 -33.46875 C 16.734375 -33.46875 13.570312 -32.132812 11.320312 -28.84375 Z M 11.320312 -28.84375 "/></g></g></g><g fill="#000000" fill-opacity="1"><g transform="translate(314.06106, 84.393467)"><g><path d="M 20.8125 -45.578125 L 16.429688 -39.070312 L 21.726562 -39.070312 L 28.601562 -45.578125 Z M 36.878906 -17.890625 C 36.207031 -28.238281 28.175781 -33.410156 20.019531 -33.410156 C 11.320312 -33.410156 2.921875 -27.75 2.921875 -16.429688 C 2.921875 -5.113281 11.441406 0.609375 19.898438 0.609375 C 26.652344 0.609375 33.410156 -2.980469 35.902344 -10.164062 L 29.757812 -10.164062 C 27.808594 -6.449219 24.039062 -4.6875 19.960938 -4.6875 C 15.03125 -4.6875 8.882812 -8.582031 8.882812 -15.03125 L 36.757812 -15.03125 C 36.878906 -15.578125 36.9375 -16.1875 36.9375 -16.855469 C 36.9375 -17.222656 36.9375 -17.527344 36.878906 -17.890625 Z M 30.609375 -19.960938 L 9.128906 -19.960938 C 10.34375 -25.800781 15.214844 -28.175781 20.019531 -28.175781 C 24.769531 -28.175781 29.453125 -25.863281 30.609375 -19.960938 Z M 30.609375 -19.960938 "/></g></g></g><g fill="#000000" fill-opacity="1"><g transform="translate(348.623393, 84.393467)"><g><path d="M 10.46875 -28.84375 L 10.46875 -32.859375 L 4.5625 -32.859375 L 4.5625 0 L 10.46875 0 L 10.46875 -17.832031 C 10.46875 -23.855469 15.09375 -28.296875 20.628906 -28.296875 C 21.601562 -28.296875 22.636719 -28.175781 23.671875 -27.871094 L 23.671875 -33.105469 C 22.332031 -33.410156 21.054688 -33.589844 19.777344 -33.589844 C 16.125 -33.589844 12.839844 -32.132812 10.46875 -28.84375 Z M 10.46875 -28.84375 "/></g></g></g><g fill="#000000" fill-opacity="1"><g transform="translate(368.581724, 84.393467)"><g><path d="M 4.199219 -41.382812 C 4.199219 -39.070312 6.085938 -37.914062 7.910156 -37.914062 C 9.796875 -37.914062 11.625 -39.070312 11.625 -41.382812 C 11.625 -43.691406 9.796875 -44.789062 7.972656 -44.789062 C 6.085938 -44.789062 4.199219 -43.632812 4.199219 -41.382812 Z M 4.929688 -33.289062 L 10.894531 -33.289062 L 10.894531 0 L 4.929688 0 Z M 4.929688 -33.289062 "/></g></g></g><g fill="#000000" fill-opacity="1"><g transform="translate(379.351678, 84.393467)"><g><path d="M 36.816406 -12.535156 L 30.671875 -12.535156 C 29.210938 -7.300781 24.828125 -4.746094 20.324219 -4.746094 C 14.664062 -4.746094 9.066406 -8.582031 9.066406 -16.492188 C 9.066406 -24.339844 14.726562 -28.175781 20.265625 -28.175781 C 24.769531 -28.175781 29.210938 -25.621094 30.671875 -20.386719 L 36.816406 -20.386719 C 35.171875 -29.148438 27.6875 -33.46875 20.203125 -33.46875 C 11.625 -33.46875 3.105469 -27.871094 3.105469 -16.492188 C 3.105469 -5.171875 11.5625 0.488281 20.082031 0.488281 C 27.566406 0.488281 35.171875 -3.710938 36.816406 -12.535156 Z M 36.816406 -12.535156 "/></g></g></g><g fill="#000000" fill-opacity="1"><g transform="translate(413.60977, 84.393467)"><g><path d="M 38.640625 -16.429688 C 38.640625 -27.75 29.878906 -33.46875 20.996094 -33.46875 C 12.050781 -33.46875 3.164062 -27.808594 3.164062 -16.429688 C 3.164062 -5.113281 11.988281 0.609375 20.8125 0.609375 C 29.757812 0.609375 38.640625 -5.050781 38.640625 -16.429688 Z M 9.128906 -16.429688 C 9.128906 -24.28125 15.03125 -28.175781 20.996094 -28.175781 C 26.835938 -28.175781 32.738281 -24.21875 32.738281 -16.429688 C 32.738281 -8.703125 26.835938 -4.746094 20.933594 -4.746094 C 15.03125 -4.746094 9.128906 -8.640625 9.128906 -16.429688 Z M 9.128906 -16.429688 "/></g></g></g><g fill="#2ba84a" fill-opacity="1"><g transform="translate(450.232552, 84.393467)"><g><path d="M 0.546875 3.957031 L 6.511719 3.957031 L 23.976562 -47.34375 L 18.074219 -47.34375 Z M 0.546875 3.957031 "/></g></g></g><g fill="#2ba84a" fill-opacity="1"><g transform="translate(470.130019, 84.393467)"><g><path d="M 26.167969 -22.757812 L 1.277344 -36.027344 L 1.277344 -29.210938 L 18.5 -20.8125 L 1.277344 -12.292969 L 1.277344 -5.660156 L 26.167969 -18.558594 Z M 26.167969 -22.757812 "/></g></g></g></svg>