<svg xmlns="http://www.w3.org/2000/svg" xmlns:xlink="http://www.w3.org/1999/xlink" width="680" zoomAndPan="magnify" viewBox="0 0 510 135.000003" height="180" preserveAspectRatio="xMidYMid meet" version="1.0"><defs><g/><clipPath id="56a261f11c"><path d="M 406.519531 34 L 442 34 L 442 88 L 406.519531 88 Z M 406.519531 34 " clip-rule="nonzero"/></clipPath><clipPath id="0446e0a4b0"><path d="M 441 24.035156 L 469.738281 24.035156 L 469.738281 98.027344 L 441 98.027344 Z M 441 24.035156 " clip-rule="nonzero"/></clipPath></defs><path fill="#2ba84a" d="M 503.324219 59.574219 L 478.527344 34.75 C 477.753906 33.980469 476.390625 33.980469 475.621094 34.75 L 470.246094 40.132812 C 469.445312 40.9375 469.445312 42.238281 470.246094 43.042969 L 488.210938 61.027344 L 470.246094 79.011719 C 469.445312 79.816406 469.445312 81.121094 470.246094 81.925781 L 475.621094 87.304688 C 476.007812 87.691406 476.53125 87.90625 477.078125 87.90625 C 477.621094 87.90625 478.140625 87.691406 478.527344 87.304688 L 503.324219 62.484375 C 504.128906 61.679688 504.128906 60.378906 503.324219 59.574219 Z M 503.324219 59.574219 " fill-opacity="1" fill-rule="nonzero"/><g clip-path="url(#56a261f11c)"><path fill="#2ba84a" d="M 440.453125 79.011719 L 422.488281 61.027344 L 440.457031 43.042969 C 440.839844 42.660156 441.058594 42.136719 441.058594 41.589844 C 441.058594 41.042969 440.84375 40.519531 440.457031 40.132812 L 435.082031 34.75 C 434.695312 34.367188 434.171875 34.148438 433.625 34.148438 C 433.082031 34.148438 432.554688 34.367188 432.175781 34.75 L 407.378906 59.574219 C 406.578125 60.378906 406.578125 61.679688 407.378906 62.484375 L 432.171875 87.304688 C 432.554688 87.691406 433.078125 87.90625 433.625 87.90625 C 434.167969 87.90625 434.695312 87.691406 435.082031 87.304688 L 440.453125 81.925781 C 441.253906 81.121094 441.253906 79.816406 440.453125 79.011719 Z M 440.453125 79.011719 " fill-opacity="1" fill-rule="nonzero"/></g><g clip-path="url(#0446e0a4b0)"><path fill="#2ba84a" d="M 469.449219 26.398438 C 469.1875 25.921875 468.746094 25.5625 468.222656 25.40625 L 463.867188 24.121094 C 462.777344 23.800781 461.632812 24.421875 461.3125 25.511719 L 441.085938 94.097656 C 440.929688 94.625 440.988281 95.1875 441.25 95.664062 C 441.511719 96.144531 441.953125 96.5 442.476562 96.65625 L 446.832031 97.941406 C 447.027344 98 447.222656 98.027344 447.414062 98.027344 C 448.300781 98.027344 449.121094 97.449219 449.386719 96.554688 L 469.613281 27.964844 C 469.769531 27.441406 469.710938 26.878906 469.449219 26.398438 Z M 469.449219 26.398438 " fill-opacity="1" fill-rule="nonzero"/></g><g fill="#fcfffc" fill-opacity="1"><g transform="translate(6.703857, 100.549365)"><g><path d="M 69.429688 -23.640625 L 57.839844 -23.640625 C 55.085938 -13.773438 46.824219 -8.953125 38.332031 -8.953125 C 27.65625 -8.953125 17.097656 -16.179688 17.097656 -31.101562 C 17.097656 -45.90625 27.773438 -53.136719 38.214844 -53.136719 C 46.707031 -53.136719 55.085938 -48.316406 57.839844 -38.445312 L 69.429688 -38.445312 C 66.332031 -54.972656 52.21875 -63.121094 38.101562 -63.121094 C 21.917969 -63.121094 5.851562 -52.5625 5.851562 -31.101562 C 5.851562 -9.753906 21.804688 0.917969 37.871094 0.917969 C 51.988281 0.917969 66.332031 -7 69.429688 -23.640625 Z M 69.429688 -23.640625 "/></g></g></g><g fill="#fcfffc" fill-opacity="1"><g transform="translate(72.917113, 100.549365)"><g><path d="M 73.105469 0 L 73.105469 -62.085938 L 61.855469 -62.085938 L 61.972656 -53.824219 C 56.464844 -61.28125 47.167969 -63.121094 39.476562 -63.121094 C 18.476562 -63.121094 6.3125 -48.085938 6.3125 -31.332031 C 6.3125 -14.230469 18.019531 1.03125 39.707031 1.03125 C 47.398438 0.917969 57.382812 -1.605469 61.855469 -8.378906 L 61.855469 0 Z M 61.855469 -31.101562 C 61.855469 -16.179688 49.808594 -8.953125 39.476562 -8.953125 C 25.707031 -8.953125 17.558594 -19.625 17.558594 -31.332031 C 17.558594 -43.609375 25.820312 -53.25 39.476562 -53.25 C 50.035156 -53.25 61.855469 -45.90625 61.855469 -31.101562 Z M 61.855469 -31.101562 "/></g></g></g><g fill="#fcfffc" fill-opacity="1"><g transform="translate(144.523878, 100.549365)"><g><path d="M 16.296875 -85.957031 L 8.035156 -73.675781 L 18.019531 -73.675781 L 30.984375 -85.957031 Z M 9.296875 0 L 20.542969 0 L 20.542969 -63.234375 L 9.296875 -63.234375 Z M 9.296875 0 "/></g></g></g><g fill="#fcfffc" fill-opacity="1"><g transform="translate(166.441526, 100.549365)"><g><path d="M 59.332031 -8.148438 L 59.332031 18.132812 L 70.578125 18.132812 L 70.578125 -62.085938 L 59.332031 -62.085938 L 59.332031 -53.824219 C 54.855469 -60.59375 46.132812 -63.121094 38.332031 -63.121094 C 16.753906 -63.121094 4.933594 -47.855469 4.933594 -30.871094 C 4.933594 -14 17.445312 1.03125 38.445312 1.03125 C 46.132812 1.03125 53.9375 -0.804688 59.332031 -8.148438 Z M 59.332031 -31.101562 C 59.332031 -16.296875 48.890625 -8.953125 38.445312 -8.953125 C 24.675781 -8.953125 16.179688 -19.96875 16.179688 -31.101562 C 16.179688 -42.234375 24.675781 -53.25 38.445312 -53.25 C 48.773438 -53.25 59.332031 -45.90625 59.332031 -31.101562 Z M 59.332031 -31.101562 "/></g></g></g><g fill="#fcfffc" fill-opacity="1"><g transform="translate(236.785979, 100.549365)"><g><path d="M 54.398438 -8.148438 L 54.398438 0 L 65.070312 0 L 65.070312 -62.660156 L 53.824219 -62.660156 L 53.824219 -28.347656 C 53.824219 -17.445312 47.398438 -9.066406 35.578125 -9.066406 C 22.035156 -9.066406 19.050781 -17.097656 19.050781 -28.691406 L 19.050781 -62.660156 L 7.804688 -62.660156 L 7.804688 -28.691406 C 7.804688 -10.902344 15.953125 0.917969 34.773438 0.917969 C 42.804688 0.917969 49.808594 -1.378906 54.398438 -8.148438 Z M 54.398438 -8.148438 "/></g></g></g><g fill="#fcfffc" fill-opacity="1"><g transform="translate(301.736935, 100.549365)"><g><path d="M 69.546875 -33.738281 C 68.285156 -53.25 53.136719 -63.003906 37.757812 -63.003906 C 21.347656 -63.003906 5.507812 -52.332031 5.507812 -30.984375 C 5.507812 -9.640625 21.574219 1.148438 37.527344 1.148438 C 50.265625 1.148438 63.003906 -5.625 67.710938 -19.164062 L 56.117188 -19.164062 C 52.445312 -12.164062 45.332031 -8.835938 37.640625 -8.835938 C 28.347656 -8.835938 16.753906 -16.179688 16.753906 -28.347656 L 69.316406 -28.347656 C 69.546875 -29.378906 69.660156 -30.527344 69.660156 -31.789062 C 69.660156 -32.476562 69.660156 -33.050781 69.546875 -33.738281 Z M 57.726562 -37.640625 L 17.214844 -37.640625 C 19.507812 -48.660156 28.691406 -53.136719 37.757812 -53.136719 C 46.707031 -53.136719 55.546875 -48.773438 57.726562 -37.640625 Z M 57.726562 -37.640625 "/></g></g></g></svg>