<svg xmlns="http://www.w3.org/2000/svg" xmlns:xlink="http://www.w3.org/1999/xlink" width="680" zoomAndPan="magnify" viewBox="0 0 510 135.000003" height="180" preserveAspectRatio="xMidYMid meet" version="1.0"><defs><g/></defs><g fill="#000000" fill-opacity="1"><g transform="translate(30.920373, 89.01048)"><g><path d="M 12.292969 -20.925781 C 12.292969 -28.902344 18.046875 -32.859375 23.804688 -32.859375 C 28.601562 -32.859375 33.457031 -30.101562 34.835938 -24.523438 L 45.210938 -24.523438 C 43.890625 -35.316406 34.597656 -42.632812 23.804688 -42.632812 C 11.8125 -42.632812 2.097656 -33.277344 2.097656 -20.925781 C 2.097656 -8.574219 11.8125 0.597656 23.804688 0.597656 C 34.71875 0.597656 43.710938 -6.65625 45.269531 -17.628906 L 34.898438 -17.628906 C 33.578125 -11.933594 28.722656 -9.054688 23.804688 -9.054688 C 18.046875 -9.054688 12.292969 -13.011719 12.292969 -20.925781 Z M 12.292969 -20.925781 "/></g></g></g><g fill="#000000" fill-opacity="1"><g transform="translate(74.931106, 89.01048)"><g><path d="M 16.550781 -32.976562 C 5.996094 -32.976562 0.839844 -25.542969 0.839844 -16.667969 C 0.839844 -7.734375 6.175781 0.417969 16.429688 0.417969 C 19.546875 0.417969 22.726562 -0.480469 24.945312 -3.238281 L 24.945312 0 L 34.359375 0 L 34.359375 -32.4375 L 24.945312 -32.4375 L 24.945312 -29.082031 C 22.84375 -31.777344 19.726562 -32.976562 16.550781 -32.976562 Z M 17.570312 -8.632812 C 12.773438 -8.632812 10.3125 -12.53125 10.3125 -16.429688 C 10.3125 -20.386719 12.710938 -24.285156 17.570312 -24.285156 C 21.644531 -24.285156 24.945312 -20.746094 24.945312 -16.429688 C 24.945312 -12.113281 21.644531 -8.632812 17.570312 -8.632812 Z M 17.570312 -8.632812 "/></g></g></g><g fill="#000000" fill-opacity="1"><g transform="translate(110.307552, 89.01048)"><g><path d="M 6.054688 -45.210938 L 2.277344 -38.554688 L 2.277344 -37.175781 L 10.011719 -37.175781 L 16.910156 -44.550781 L 16.910156 -45.210938 Z M 11.753906 -32.4375 L 2.160156 -32.4375 L 2.21875 0 L 11.8125 0 Z M 11.753906 -32.4375 "/></g></g></g><g fill="#000000" fill-opacity="1"><g transform="translate(123.198872, 89.01048)"><g><path d="M 16.429688 0.539062 C 19.605469 0.539062 22.664062 -0.539062 24.824219 -2.996094 L 24.824219 9.472656 L 34.238281 9.472656 L 34.238281 -32.4375 L 24.824219 -32.4375 L 24.824219 -29.199219 C 22.605469 -31.960938 19.425781 -32.859375 16.308594 -32.859375 C 6.117188 -32.859375 0.78125 -24.765625 0.78125 -15.949219 C 0.78125 -6.957031 5.816406 0.539062 16.429688 0.539062 Z M 17.449219 -23.804688 C 21.527344 -23.804688 24.824219 -20.328125 24.824219 -16.007812 C 24.824219 -11.691406 21.527344 -8.15625 17.449219 -8.15625 C 12.710938 -8.15625 10.253906 -11.992188 10.191406 -15.890625 C 10.191406 -19.785156 12.589844 -23.804688 17.449219 -23.804688 Z M 17.449219 -23.804688 "/></g></g></g><g fill="#000000" fill-opacity="1"><g transform="translate(158.4554, 89.01048)"><g><path d="M 22.484375 -3.296875 L 22.484375 0 L 32.019531 0 L 32.019531 -32.4375 L 22.003906 -32.4375 L 22.003906 -14.808594 C 22.003906 -10.492188 19.066406 -8.09375 16.25 -8.09375 C 13.671875 -8.09375 11.152344 -10.132812 11.152344 -14.628906 L 11.152344 -32.4375 L 1.617188 -32.4375 L 1.617188 -14.570312 C 1.558594 -6.414062 4.136719 0.417969 13.671875 0.417969 C 17.027344 0.417969 20.265625 -0.480469 22.484375 -3.296875 Z M 22.484375 -3.296875 "/></g></g></g><g fill="#000000" fill-opacity="1"><g transform="translate(191.4934, 89.01048)"><g><path d="M 34.296875 -16.308594 C 34.296875 -27.402344 25.902344 -32.917969 17.570312 -32.917969 C 9.113281 -32.917969 0.78125 -27.402344 0.78125 -16.308594 C 0.78125 -5.214844 9.113281 0.359375 17.507812 0.359375 C 24.222656 0.359375 30.878906 -3.179688 33.339844 -10.253906 L 23.085938 -10.253906 C 21.707031 -8.753906 19.726562 -8.035156 17.628906 -8.035156 C 14.75 -8.09375 11.8125 -9.59375 10.671875 -12.589844 L 33.9375 -12.589844 C 34.175781 -13.789062 34.296875 -14.988281 34.296875 -16.308594 Z M 23.984375 -19.96875 L 11.03125 -19.96875 C 11.992188 -23.144531 14.570312 -24.703125 17.386719 -24.703125 C 20.445312 -24.703125 23.085938 -23.203125 23.984375 -19.96875 Z M 23.984375 -19.96875 "/></g></g></g><g fill="#000000" fill-opacity="1"><g transform="translate(226.688544, 89.01048)"><g><path d="M 10.375 -10.613281 L 27.402344 -10.613281 L 31.417969 0 L 37.894531 0 L 21.046875 -42.511719 L 16.609375 -42.511719 L -0.238281 0 L 6.296875 0 Z M 25.183594 -16.308594 L 12.589844 -16.308594 L 18.886719 -32.859375 Z M 25.183594 -16.308594 "/></g></g></g><g fill="#000000" fill-opacity="1"><g transform="translate(261.525357, 89.01048)"><g><path d="M 11.152344 -28.421875 L 11.152344 -32.976562 L 5.277344 -32.976562 L 5.277344 0 L 11.152344 0 L 11.152344 -17.628906 C 11.152344 -23.984375 15.050781 -27.523438 20.207031 -27.523438 C 25.601562 -27.523438 27.34375 -22.785156 27.34375 -18.226562 L 27.34375 0 L 33.21875 0 L 33.21875 -18.289062 C 33.21875 -23.566406 36.097656 -27.523438 41.851562 -27.523438 C 47.488281 -27.523438 48.628906 -22.964844 48.628906 -18.40625 L 48.628906 0 L 54.503906 0 L 54.503906 -18.46875 C 54.503906 -26.683594 50.605469 -32.976562 41.671875 -32.976562 C 36.9375 -32.917969 33.277344 -30.941406 31.300781 -27.34375 C 28.902344 -31.898438 24.824219 -32.976562 20.265625 -32.976562 C 16.488281 -32.976562 13.371094 -31.660156 11.152344 -28.421875 Z M 11.152344 -28.421875 "/></g></g></g><g fill="#000000" fill-opacity="1"><g transform="translate(317.408245, 89.01048)"><g><path d="M 20.507812 -44.910156 L 16.1875 -38.496094 L 21.40625 -38.496094 L 28.179688 -44.910156 Z M 36.335938 -17.628906 C 35.675781 -27.820312 27.761719 -32.917969 19.726562 -32.917969 C 11.152344 -32.917969 2.878906 -27.34375 2.878906 -16.1875 C 2.878906 -5.035156 11.273438 0.597656 19.605469 0.597656 C 26.261719 0.597656 32.917969 -2.9375 35.375 -10.011719 L 29.320312 -10.011719 C 27.402344 -6.355469 23.683594 -4.617188 19.667969 -4.617188 C 14.808594 -4.617188 8.753906 -8.453125 8.753906 -14.808594 L 36.214844 -14.808594 C 36.335938 -15.351562 36.394531 -15.949219 36.394531 -16.609375 C 36.394531 -16.96875 36.394531 -17.269531 36.335938 -17.628906 Z M 30.160156 -19.667969 L 8.992188 -19.667969 C 10.191406 -25.421875 14.988281 -27.761719 19.726562 -27.761719 C 24.402344 -27.761719 29.019531 -25.484375 30.160156 -19.667969 Z M 30.160156 -19.667969 "/></g></g></g><g fill="#000000" fill-opacity="1"><g transform="translate(353.80402, 89.01048)"><g><path d="M 10.3125 -28.421875 L 10.3125 -32.378906 L 4.496094 -32.378906 L 4.496094 0 L 10.3125 0 L 10.3125 -17.570312 C 10.3125 -23.503906 14.871094 -27.882812 20.328125 -27.882812 C 21.285156 -27.882812 22.304688 -27.761719 23.324219 -27.460938 L 23.324219 -32.617188 C 22.003906 -32.917969 20.746094 -33.097656 19.488281 -33.097656 C 15.890625 -33.097656 12.652344 -31.660156 10.3125 -28.421875 Z M 10.3125 -28.421875 "/></g></g></g><g fill="#000000" fill-opacity="1"><g transform="translate(375.809321, 89.01048)"><g><path d="M 4.136719 -40.773438 C 4.136719 -38.496094 5.996094 -37.355469 7.792969 -37.355469 C 9.652344 -37.355469 11.453125 -38.496094 11.453125 -40.773438 C 11.453125 -43.050781 9.652344 -44.132812 7.855469 -44.132812 C 5.996094 -44.132812 4.136719 -42.992188 4.136719 -40.773438 Z M 4.855469 -32.796875 L 10.734375 -32.796875 L 10.734375 0 L 4.855469 0 Z M 4.855469 -32.796875 "/></g></g></g><g fill="#000000" fill-opacity="1"><g transform="translate(388.760608, 89.01048)"><g><path d="M 36.277344 -12.351562 L 30.21875 -12.351562 C 28.78125 -7.195312 24.464844 -4.675781 20.027344 -4.675781 C 14.449219 -4.675781 8.933594 -8.453125 8.933594 -16.25 C 8.933594 -23.984375 14.511719 -27.761719 19.96875 -27.761719 C 24.402344 -27.761719 28.78125 -25.242188 30.21875 -20.085938 L 36.277344 -20.085938 C 34.65625 -28.722656 27.28125 -32.976562 19.90625 -32.976562 C 11.453125 -32.976562 3.058594 -27.460938 3.058594 -16.25 C 3.058594 -5.097656 11.390625 0.480469 19.785156 0.480469 C 27.164062 0.480469 34.65625 -3.65625 36.277344 -12.351562 Z M 36.277344 -12.351562 "/></g></g></g><g fill="#000000" fill-opacity="1"><g transform="translate(424.856586, 89.01048)"><g><path d="M 38.074219 -16.1875 C 38.074219 -27.34375 29.441406 -32.976562 20.6875 -32.976562 C 11.871094 -32.976562 3.117188 -27.402344 3.117188 -16.1875 C 3.117188 -5.035156 11.8125 0.597656 20.507812 0.597656 C 29.320312 0.597656 38.074219 -4.976562 38.074219 -16.1875 Z M 8.992188 -16.1875 C 8.992188 -23.925781 14.808594 -27.761719 20.6875 -27.761719 C 26.441406 -27.761719 32.257812 -23.863281 32.257812 -16.1875 C 32.257812 -8.574219 26.441406 -4.675781 20.625 -4.675781 C 14.808594 -4.675781 8.992188 -8.515625 8.992188 -16.1875 Z M 8.992188 -16.1875 "/></g></g></g><g fill="#2ba84a" fill-opacity="1"><g transform="translate(6.003152, 83.855436)"><g><path d="M 5.558594 -13.839844 L 16.71875 -19.363281 L 16.71875 -23.738281 L 0.632812 -15.144531 L 0.632812 -12.421875 L 16.71875 -4.0625 L 16.71875 -8.242188 Z M 5.558594 -13.839844 "/></g></g></g><g fill="#2ba84a" fill-opacity="1"><g transform="translate(473.034403, 83.855436)"><g><path d="M 0.355469 2.5625 L 4.21875 2.5625 L 15.539062 -30.679688 L 11.710938 -30.679688 Z M 0.355469 2.5625 "/></g></g></g><g fill="#2ba84a" fill-opacity="1"><g transform="translate(486.480938, 83.855436)"><g><path d="M 16.957031 -14.75 L 0.828125 -23.34375 L 0.828125 -18.929688 L 11.988281 -13.488281 L 0.828125 -7.964844 L 0.828125 -3.667969 L 16.957031 -12.027344 Z M 16.957031 -14.75 "/></g></g></g></svg>