<svg xmlns="http://www.w3.org/2000/svg" xmlns:xlink="http://www.w3.org/1999/xlink" width="680" zoomAndPan="magnify" viewBox="0 0 510 135.000003" height="180" preserveAspectRatio="xMidYMid meet" version="1.0"><defs><g/><clipPath id="24b370d966"><path d="M 402 8.535156 L 504 8.535156 L 504 90.917969 L 402 90.917969 Z M 402 8.535156 " clip-rule="nonzero"/></clipPath><clipPath id="28662d1898"><path d="M 463 25 L 489.957031 25 L 489.957031 67 L 463 67 Z M 463 25 " clip-rule="nonzero"/></clipPath><clipPath id="1c8909d611"><path d="M 414.761719 25 L 442 25 L 442 67 L 414.761719 67 Z M 414.761719 25 " clip-rule="nonzero"/></clipPath><clipPath id="73a5cd752d"><path d="M 441 17.769531 L 463.503906 17.769531 L 463.503906 74.742188 L 441 74.742188 Z M 441 17.769531 " clip-rule="nonzero"/></clipPath></defs><g clip-path="url(#24b370d966)"><path fill="#2ba84a" d="M 452.730469 8.535156 C 424.785156 8.535156 402.828125 25.808594 402.828125 47.070312 C 402.828125 57.699219 410.8125 68.328125 419.460938 75.636719 C 418.796875 82.945312 407.484375 86.269531 402.828125 90.917969 C 412.808594 90.917969 424.785156 87.597656 431.4375 82.28125 C 436.761719 83.609375 447.40625 85.605469 453.394531 85.605469 C 481.339844 85.605469 503.292969 68.328125 503.292969 47.070312 C 503.292969 25.808594 480.671875 8.535156 452.730469 8.535156 Z M 452.730469 8.535156 " fill-opacity="1" fill-rule="nonzero"/></g><g fill="#040f0f" fill-opacity="1"><g transform="translate(24.051504, 106.244232)"><g><path d="M 67.753906 -23.070312 L 56.445312 -23.070312 C 53.757812 -13.4375 45.691406 -8.734375 37.40625 -8.734375 C 26.992188 -8.734375 16.6875 -15.789062 16.6875 -30.351562 C 16.6875 -44.796875 27.101562 -51.851562 37.292969 -51.851562 C 45.582031 -51.851562 53.757812 -47.148438 56.445312 -37.519531 L 67.753906 -37.519531 C 64.730469 -53.644531 50.957031 -61.597656 37.183594 -61.597656 C 21.390625 -61.597656 5.710938 -51.292969 5.710938 -30.351562 C 5.710938 -9.519531 21.277344 0.894531 36.957031 0.894531 C 50.734375 0.894531 64.730469 -6.832031 67.753906 -23.070312 Z M 67.753906 -23.070312 "/></g></g></g><g fill="#040f0f" fill-opacity="1"><g transform="translate(91.130922, 106.244232)"><g><path d="M 71.339844 0 L 71.339844 -60.589844 L 60.363281 -60.589844 L 60.476562 -52.523438 C 55.101562 -59.804688 46.027344 -61.597656 38.527344 -61.597656 C 18.03125 -61.597656 6.160156 -46.925781 6.160156 -30.574219 C 6.160156 -13.886719 17.582031 1.007812 38.75 1.007812 C 46.253906 0.894531 55.996094 -1.566406 60.363281 -8.175781 L 60.363281 0 Z M 60.363281 -30.351562 C 60.363281 -15.789062 48.605469 -8.734375 38.527344 -8.734375 C 25.085938 -8.734375 17.136719 -19.152344 17.136719 -30.574219 C 17.136719 -42.558594 25.199219 -51.964844 38.527344 -51.964844 C 48.828125 -51.964844 60.363281 -44.796875 60.363281 -30.351562 Z M 60.363281 -30.351562 "/></g></g></g><g fill="#040f0f" fill-opacity="1"><g transform="translate(163.473719, 106.244232)"><g><path d="M 15.902344 -83.882812 L 7.839844 -71.898438 L 17.582031 -71.898438 L 30.238281 -83.882812 Z M 9.070312 0 L 20.046875 0 L 20.046875 -61.707031 L 9.070312 -61.707031 Z M 9.070312 0 "/></g></g></g><g fill="#040f0f" fill-opacity="1"><g transform="translate(187.326205, 106.244232)"><g><path d="M 57.898438 -7.953125 L 57.898438 17.695312 L 68.875 17.695312 L 68.875 -60.589844 L 57.898438 -60.589844 L 57.898438 -52.523438 C 53.53125 -59.132812 45.019531 -61.597656 37.40625 -61.597656 C 16.351562 -61.597656 4.816406 -46.699219 4.816406 -30.125 C 4.816406 -13.664062 17.023438 1.007812 37.519531 1.007812 C 45.019531 1.007812 52.636719 -0.785156 57.898438 -7.953125 Z M 57.898438 -30.351562 C 57.898438 -15.902344 47.707031 -8.734375 37.519531 -8.734375 C 24.078125 -8.734375 15.789062 -19.488281 15.789062 -30.351562 C 15.789062 -41.214844 24.078125 -51.964844 37.519531 -51.964844 C 47.597656 -51.964844 57.898438 -44.796875 57.898438 -30.351562 Z M 57.898438 -30.351562 "/></g></g></g><g fill="#040f0f" fill-opacity="1"><g transform="translate(258.437136, 106.244232)"><g><path d="M 53.085938 -7.953125 L 53.085938 0 L 63.5 0 L 63.5 -61.148438 L 52.523438 -61.148438 L 52.523438 -27.664062 C 52.523438 -17.023438 46.253906 -8.847656 34.71875 -8.847656 C 21.503906 -8.847656 18.589844 -16.6875 18.589844 -28 L 18.589844 -61.148438 L 7.617188 -61.148438 L 7.617188 -28 C 7.617188 -10.640625 15.566406 0.894531 33.933594 0.894531 C 41.773438 0.894531 48.605469 -1.34375 53.085938 -7.953125 Z M 53.085938 -7.953125 "/></g></g></g><g fill="#040f0f" fill-opacity="1"><g transform="translate(324.284688, 106.244232)"><g><path d="M 67.867188 -32.925781 C 66.636719 -51.964844 51.851562 -61.484375 36.84375 -61.484375 C 20.832031 -61.484375 5.375 -51.070312 5.375 -30.238281 C 5.375 -9.40625 21.054688 1.121094 36.621094 1.121094 C 49.054688 1.121094 61.484375 -5.488281 66.074219 -18.703125 L 54.765625 -18.703125 C 51.179688 -11.871094 44.238281 -8.625 36.734375 -8.625 C 27.664062 -8.625 16.351562 -15.789062 16.351562 -27.664062 L 67.644531 -27.664062 C 67.867188 -28.671875 67.980469 -29.789062 67.980469 -31.023438 C 67.980469 -31.695312 67.980469 -32.253906 67.867188 -32.925781 Z M 56.332031 -36.734375 L 16.800781 -36.734375 C 19.039062 -47.484375 28 -51.851562 36.84375 -51.851562 C 45.582031 -51.851562 54.203125 -47.597656 56.332031 -36.734375 Z M 56.332031 -36.734375 "/></g></g></g><g clip-path="url(#28662d1898)"><path fill="#ffffff" d="M 489.398438 45.132812 L 470.28125 26.019531 C 469.6875 25.425781 468.632812 25.425781 468.039062 26.019531 L 463.894531 30.164062 C 463.277344 30.78125 463.277344 31.785156 463.894531 32.402344 L 477.746094 46.253906 L 463.894531 60.101562 C 463.277344 60.722656 463.277344 61.726562 463.894531 62.347656 L 468.039062 66.488281 C 468.339844 66.785156 468.742188 66.949219 469.164062 66.949219 C 469.582031 66.949219 469.984375 66.785156 470.28125 66.488281 L 489.398438 47.375 C 490.019531 46.753906 490.019531 45.753906 489.398438 45.132812 Z M 489.398438 45.132812 " fill-opacity="1" fill-rule="nonzero"/></g><g clip-path="url(#1c8909d611)"><path fill="#ffffff" d="M 440.925781 60.101562 L 427.074219 46.253906 L 440.929688 32.402344 C 441.222656 32.109375 441.394531 31.707031 441.394531 31.285156 C 441.394531 30.863281 441.226562 30.460938 440.929688 30.164062 L 436.785156 26.019531 C 436.484375 25.722656 436.082031 25.554688 435.660156 25.554688 C 435.242188 25.554688 434.835938 25.722656 434.542969 26.019531 L 415.425781 45.132812 C 414.808594 45.753906 414.808594 46.753906 415.425781 47.375 L 434.539062 66.488281 C 434.835938 66.785156 435.238281 66.949219 435.660156 66.949219 C 436.078125 66.949219 436.484375 66.785156 436.785156 66.488281 L 440.925781 62.347656 C 441.542969 61.726562 441.542969 60.722656 440.925781 60.101562 Z M 440.925781 60.101562 " fill-opacity="1" fill-rule="nonzero"/></g><g clip-path="url(#73a5cd752d)"><path fill="#ffffff" d="M 463.28125 19.585938 C 463.078125 19.21875 462.738281 18.945312 462.335938 18.824219 L 458.976562 17.835938 C 458.136719 17.585938 457.253906 18.066406 457.007812 18.90625 L 441.414062 71.71875 C 441.292969 72.125 441.339844 72.558594 441.539062 72.925781 C 441.742188 73.292969 442.082031 73.566406 442.484375 73.6875 L 445.84375 74.679688 C 445.996094 74.726562 446.144531 74.742188 446.292969 74.742188 C 446.976562 74.742188 447.609375 74.300781 447.8125 73.609375 L 463.410156 20.792969 C 463.527344 20.390625 463.480469 19.957031 463.28125 19.585938 Z M 463.28125 19.585938 " fill-opacity="1" fill-rule="nonzero"/></g></svg>