<svg xmlns="http://www.w3.org/2000/svg" xmlns:xlink="http://www.w3.org/1999/xlink" width="296" zoomAndPan="magnify" viewBox="0 0 222 329.999987" height="440" preserveAspectRatio="xMidYMid meet" version="1.0"><defs><clipPath id="063304968d"><path d="M 86 96.304688 L 213.429688 96.304688 L 213.429688 268.804688 L 86 268.804688 Z M 86 96.304688 " clip-rule="nonzero"/></clipPath><clipPath id="66c142ce22"><path d="M 5 62 L 91 62 L 91 193 L 5 193 Z M 5 62 " clip-rule="nonzero"/></clipPath><clipPath id="31bbbfec5c"><path d="M 0 65.992188 L 86.101562 60.898438 L 93.757812 190.421875 L 7.660156 195.515625 Z M 0 65.992188 " clip-rule="nonzero"/></clipPath><clipPath id="25ab0a2071"><path d="M 0 65.992188 L 86.101562 60.898438 L 93.757812 190.421875 L 7.660156 195.515625 Z M 0 65.992188 " clip-rule="nonzero"/></clipPath><clipPath id="181052588e"><path d="M 0 65.992188 L 86.101562 60.898438 L 93.757812 190.421875 L 7.660156 195.515625 Z M 0 65.992188 " clip-rule="nonzero"/></clipPath></defs><g clip-path="url(#063304968d)"><path fill="#000000" d="M 212.3125 211.992188 L 204.320312 203.992188 C 203.40625 203.082031 202.777344 201.933594 202.496094 200.675781 C 202.214844 199.410156 202.296875 198.101562 202.734375 196.882812 C 203.292969 195.328125 203.871094 193.078125 204.453125 190.195312 C 205.402344 185.484375 205.039062 180.59375 203.398438 176.0625 L 193.503906 148.695312 C 191.464844 143.050781 186.285156 139.101562 180.304688 138.632812 L 173.835938 138.121094 C 170.835938 137.882812 168.070312 136.375 166.25 133.980469 C 165.90625 133.527344 165.535156 133.101562 165.144531 132.710938 C 160.367188 127.929688 152.589844 127.9375 147.804688 132.722656 C 146.867188 133.660156 146.042969 134.675781 145.335938 135.761719 L 109.875 100.285156 C 107.292969 97.703125 103.863281 96.285156 100.214844 96.285156 C 96.5625 96.289062 93.136719 97.710938 90.558594 100.289062 C 85.230469 105.617188 85.230469 114.285156 90.558594 119.613281 L 121.371094 150.4375 C 118.453125 150.796875 115.632812 152.09375 113.398438 154.328125 C 108.785156 158.949219 108.167969 166.082031 111.558594 171.367188 C 108.503906 171.652344 105.527344 172.96875 103.1875 175.304688 C 98.960938 179.53125 98.089844 185.863281 100.574219 190.957031 C 97.925781 191.210938 95.363281 192.3125 93.339844 194.273438 C 90.949219 196.585938 89.632812 199.695312 89.632812 203.023438 C 89.632812 206.28125 90.898438 209.339844 93.199219 211.640625 L 127.300781 245.757812 C 131.066406 249.523438 135.339844 252.726562 140.003906 255.28125 C 146.101562 258.625 151.6875 262.8125 156.601562 267.730469 C 157.632812 268.757812 159.300781 268.757812 160.332031 267.730469 L 212.3125 215.722656 C 213.34375 214.691406 213.34375 213.023438 212.3125 211.992188 Z M 158.4375 262.164062 C 153.640625 257.679688 148.304688 253.816406 142.539062 250.65625 C 138.3125 248.339844 134.441406 245.4375 131.03125 242.027344 L 96.929688 207.914062 C 95.625 206.605469 94.902344 204.871094 94.902344 203.027344 C 94.90625 201.136719 95.65625 199.375 97.007812 198.058594 C 99.699219 195.449219 104.117188 195.554688 106.851562 198.289062 C 107.878906 199.320312 109.550781 199.320312 110.578125 198.289062 C 111.609375 197.261719 111.609375 195.589844 110.578125 194.5625 L 106.917969 190.898438 C 103.648438 187.625 103.648438 182.300781 106.917969 179.03125 C 110.1875 175.761719 115.507812 175.761719 118.777344 179.03125 C 119.804688 180.0625 121.476562 180.0625 122.507812 179.03125 C 123.535156 178 123.535156 176.332031 122.507812 175.304688 L 117.128906 169.921875 C 113.859375 166.652344 113.859375 161.328125 117.128906 158.058594 C 120.386719 154.796875 125.683594 154.785156 128.957031 158.027344 L 134.691406 163.765625 C 135.722656 164.792969 137.390625 164.792969 138.421875 163.765625 C 139.449219 162.734375 139.449219 161.0625 138.421875 160.035156 L 94.285156 115.882812 C 91.015625 112.613281 91.015625 107.289062 94.285156 104.019531 C 95.867188 102.4375 97.976562 101.5625 100.214844 101.558594 C 102.457031 101.558594 104.5625 102.433594 106.144531 104.015625 L 173.359375 171.257812 C 174.390625 172.289062 176.058594 172.289062 177.089844 171.257812 C 178.121094 170.230469 178.121094 168.558594 177.089844 167.527344 L 149.183594 139.613281 C 149.800781 138.457031 150.585938 137.398438 151.53125 136.453125 C 154.261719 133.722656 158.695312 133.71875 161.417969 136.441406 C 161.636719 136.664062 161.851562 136.90625 162.050781 137.167969 C 164.78125 140.761719 168.925781 143.023438 173.417969 143.378906 L 179.890625 143.890625 C 183.8125 144.199219 187.210938 146.789062 188.542969 150.488281 L 198.441406 177.855469 C 199.753906 181.480469 200.042969 185.386719 199.285156 189.152344 C 198.761719 191.746094 198.238281 193.800781 197.773438 195.097656 C 196.996094 197.257812 196.851562 199.585938 197.351562 201.820312 C 197.847656 204.058594 198.96875 206.101562 200.59375 207.722656 L 206.722656 213.859375 Z M 158.4375 262.164062 " fill-opacity="1" fill-rule="nonzero"/></g><g clip-path="url(#66c142ce22)"><g clip-path="url(#31bbbfec5c)"><g clip-path="url(#25ab0a2071)"><g clip-path="url(#181052588e)"><path fill="#000000" d="M 48.628906 191.9375 C 48.914062 192.191406 49.238281 192.382812 49.597656 192.507812 C 49.957031 192.632812 50.328125 192.6875 50.710938 192.664062 C 51.09375 192.644531 51.457031 192.550781 51.800781 192.386719 C 52.144531 192.222656 52.445312 192 52.703125 191.714844 L 63.429688 179.863281 L 90.160156 149.738281 C 90.417969 149.449219 90.609375 149.125 90.734375 148.757812 C 90.859375 148.394531 90.910156 148.023438 90.886719 147.636719 C 90.867188 147.253906 90.769531 146.886719 90.601562 146.542969 C 90.433594 146.195312 90.207031 145.894531 89.917969 145.640625 L 77.878906 134.933594 C 77.28125 134.398438 76.582031 134.15625 75.785156 134.203125 L 75.777344 134.203125 C 74.972656 134.253906 74.308594 134.582031 73.777344 135.1875 L 59.320312 151.652344 L 54.238281 65.703125 C 54.214844 65.320312 54.121094 64.953125 53.953125 64.605469 C 53.785156 64.261719 53.558594 63.960938 53.269531 63.703125 C 52.980469 63.449219 52.65625 63.257812 52.292969 63.132812 C 51.929688 63.003906 51.554688 62.953125 51.171875 62.976562 L 35.21875 63.921875 C 34.835938 63.941406 34.46875 64.039062 34.125 64.207031 C 33.777344 64.375 33.476562 64.601562 33.222656 64.890625 C 32.964844 65.175781 32.777344 65.503906 32.648438 65.867188 C 32.523438 66.230469 32.472656 66.605469 32.496094 66.988281 L 37.582031 152.992188 L 21.050781 138.292969 C 20.453125 137.757812 19.753906 137.515625 18.953125 137.5625 L 18.941406 137.566406 C 18.136719 137.617188 17.46875 137.945312 16.941406 138.554688 L 6.464844 150.59375 C 6.214844 150.882812 6.027344 151.207031 5.90625 151.570312 C 5.78125 151.933594 5.734375 152.304688 5.757812 152.6875 C 5.78125 153.066406 5.878906 153.429688 6.046875 153.773438 C 6.214844 154.117188 6.441406 154.417969 6.726562 154.671875 Z M 48.628906 191.9375 " fill-opacity="1" fill-rule="nonzero"/></g></g></g></g></svg>